<svg width="871" height="276" viewBox="0 0 871 276" fill="none" xmlns="http://www.w3.org/2000/svg">
<path d="M344.144 123H312.912C302.245 123 294.309 120.867 289.104 116.6C283.984 112.333 281.424 105.763 281.424 96.888V57.08C281.424 48.2053 283.984 41.6347 289.104 37.368C294.309 33.016 302.245 30.84 312.912 30.84H344.144C345.765 30.84 346.917 31.224 347.6 31.992C348.368 32.6747 348.752 33.8267 348.752 35.448V50.936C348.752 52.5573 348.368 53.752 347.6 54.52C346.917 55.2027 345.765 55.544 344.144 55.544H318.416C315.771 55.544 313.808 56.0987 312.528 57.208C311.248 58.232 310.608 59.8107 310.608 61.944V92.408C310.608 94.5413 311.248 96.12 312.528 97.144C313.808 98.0827 315.771 98.552 318.416 98.552H344.144C345.765 98.552 346.917 98.936 347.6 99.704C348.368 100.387 348.752 101.539 348.752 103.16V118.392C348.752 120.013 348.368 121.208 347.6 121.976C346.917 122.659 345.765 123 344.144 123ZM429.383 30.84H448.455C450.076 30.84 451.228 31.224 451.911 31.992C452.679 32.6747 453.063 33.8267 453.063 35.448V85.112C453.063 87.8427 452.935 90.4027 452.679 92.792C452.508 95.096 451.868 97.8267 450.759 100.984L444.359 118.392C443.932 119.672 443.292 120.781 442.439 121.72C441.671 122.573 440.604 123 439.239 123H422.215C420.85 123 419.612 122.701 418.503 122.104C417.394 121.507 416.668 120.525 416.327 119.16L410.439 98.296C410.183 97.4427 409.842 96.888 409.415 96.632C409.074 96.2907 408.647 96.12 408.135 96.12H406.983C406.471 96.12 406.002 96.2907 405.575 96.632C405.234 96.888 404.935 97.4427 404.679 98.296L398.663 119.16C398.322 120.44 397.682 121.421 396.743 122.104C395.804 122.701 394.652 123 393.287 123H376.391C375.026 123 373.831 122.573 372.807 121.72C371.868 120.867 371.186 119.757 370.759 118.392L364.359 100.728C363.25 97.5707 362.567 94.84 362.311 92.536C362.14 90.1467 362.055 87.5867 362.055 84.856V35.448C362.055 33.8267 362.396 32.6747 363.079 31.992C363.847 31.224 365.042 30.84 366.663 30.84H386.375C387.996 30.84 389.148 31.224 389.831 31.992C390.599 32.6747 390.983 33.8267 390.983 35.448V82.552L398.407 66.424C399.09 64.9733 399.986 63.9493 401.095 63.352C402.204 62.7547 403.57 62.456 405.191 62.456H410.567C412.188 62.456 413.554 62.7547 414.663 63.352C415.772 63.9493 416.668 64.9733 417.351 66.424L424.775 82.552V35.448C424.775 33.8267 425.116 32.6747 425.799 31.992C426.567 31.224 427.762 30.84 429.383 30.84ZM523.342 123H474.19C472.569 123 471.374 122.659 470.606 121.976C469.923 121.208 469.582 120.013 469.582 118.392V35.448C469.582 33.8267 469.923 32.6747 470.606 31.992C471.374 31.224 472.569 30.84 474.19 30.84H515.022C523.385 30.84 529.571 32.4613 533.582 35.704C537.593 38.8613 539.598 43.768 539.598 50.424V56.568C539.598 60.152 538.958 63.096 537.678 65.4C536.483 67.6187 534.606 69.2827 532.046 70.392C537.507 70.904 541.561 72.7813 544.206 76.024C546.851 79.2667 548.174 84.0027 548.174 90.232V102.008C548.174 109.176 546.126 114.467 542.03 117.88C538.019 121.293 531.79 123 523.342 123ZM498.382 52.6V66.424H509.262C510.883 66.424 512.078 65.9973 512.846 65.144C513.699 64.2907 514.126 63.0107 514.126 61.304V57.72C514.126 56.0133 513.699 54.7333 512.846 53.88C512.078 53.0267 510.883 52.6 509.262 52.6H498.382ZM498.382 86.136V101.24H515.022C516.643 101.24 517.838 100.813 518.606 99.96C519.459 99.1067 519.886 97.8267 519.886 96.12V91.128C519.886 89.4213 519.459 88.184 518.606 87.416C517.838 86.5627 516.643 86.136 515.022 86.136H498.382ZM657.258 30.84H676.33C677.951 30.84 679.103 31.224 679.786 31.992C680.554 32.6747 680.938 33.8267 680.938 35.448V85.112C680.938 87.8427 680.81 90.4027 680.554 92.792C680.383 95.096 679.743 97.8267 678.634 100.984L672.234 118.392C671.807 119.672 671.167 120.781 670.314 121.72C669.546 122.573 668.479 123 667.114 123H650.09C648.725 123 647.487 122.701 646.378 122.104C645.269 121.507 644.543 120.525 644.202 119.16L638.314 98.296C638.058 97.4427 637.717 96.888 637.29 96.632C636.949 96.2907 636.522 96.12 636.01 96.12H634.858C634.346 96.12 633.877 96.2907 633.45 96.632C633.109 96.888 632.81 97.4427 632.554 98.296L626.538 119.16C626.197 120.44 625.557 121.421 624.618 122.104C623.679 122.701 622.527 123 621.162 123H604.266C602.901 123 601.706 122.573 600.682 121.72C599.743 120.867 599.061 119.757 598.634 118.392L592.234 100.728C591.125 97.5707 590.442 94.84 590.186 92.536C590.015 90.1467 589.93 87.5867 589.93 84.856V35.448C589.93 33.8267 590.271 32.6747 590.954 31.992C591.722 31.224 592.917 30.84 594.538 30.84H614.25C615.871 30.84 617.023 31.224 617.706 31.992C618.474 32.6747 618.858 33.8267 618.858 35.448V82.552L626.282 66.424C626.965 64.9733 627.861 63.9493 628.97 63.352C630.079 62.7547 631.445 62.456 633.066 62.456H638.442C640.063 62.456 641.429 62.7547 642.538 63.352C643.647 63.9493 644.543 64.9733 645.226 66.424L652.65 82.552V35.448C652.65 33.8267 652.991 32.6747 653.674 31.992C654.442 31.224 655.637 30.84 657.258 30.84ZM761.457 123H702.065C700.444 123 699.249 122.659 698.481 121.976C697.798 121.208 697.457 120.013 697.457 118.392V35.448C697.457 33.8267 697.798 32.6747 698.481 31.992C699.249 31.224 700.444 30.84 702.065 30.84H761.457C763.078 30.84 764.23 31.224 764.913 31.992C765.681 32.6747 766.065 33.8267 766.065 35.448V50.424C766.065 52.0453 765.681 53.24 764.913 54.008C764.23 54.6907 763.078 55.032 761.457 55.032H726.129V64.888H751.089C752.71 64.888 753.862 65.272 754.545 66.04C755.313 66.7227 755.697 67.8747 755.697 69.496V83.192C755.697 84.8133 755.313 86.008 754.545 86.776C753.862 87.4587 752.71 87.8 751.089 87.8H726.129V98.808H761.457C763.078 98.808 764.23 99.192 764.913 99.96C765.681 100.643 766.065 101.795 766.065 103.416V118.392C766.065 120.013 765.681 121.208 764.913 121.976C764.23 122.659 763.078 123 761.457 123ZM834.967 123H785.815C784.194 123 782.999 122.659 782.231 121.976C781.548 121.208 781.207 120.013 781.207 118.392V35.448C781.207 33.8267 781.548 32.6747 782.231 31.992C782.999 31.224 784.194 30.84 785.815 30.84H826.647C835.01 30.84 841.196 32.4613 845.207 35.704C849.218 38.8613 851.223 43.768 851.223 50.424V56.568C851.223 60.152 850.583 63.096 849.303 65.4C848.108 67.6187 846.231 69.2827 843.671 70.392C849.132 70.904 853.186 72.7813 855.831 76.024C858.476 79.2667 859.799 84.0027 859.799 90.232V102.008C859.799 109.176 857.751 114.467 853.655 117.88C849.644 121.293 843.415 123 834.967 123ZM810.007 52.6V66.424H820.887C822.508 66.424 823.703 65.9973 824.471 65.144C825.324 64.2907 825.751 63.0107 825.751 61.304V57.72C825.751 56.0133 825.324 54.7333 824.471 53.88C823.703 53.0267 822.508 52.6 820.887 52.6H810.007ZM810.007 86.136V101.24H826.647C828.268 101.24 829.463 100.813 830.231 99.96C831.084 99.1067 831.511 97.8267 831.511 96.12V91.128C831.511 89.4213 831.084 88.184 830.231 87.416C829.463 86.5627 828.268 86.136 826.647 86.136H810.007Z" fill="white"/>
<mask id="path-2-outside-1_6_71" maskUnits="userSpaceOnUse" x="289" y="164" width="564" height="72" fill="black">
<rect fill="white" x="289" y="164" width="564" height="72"/>
<path d="M290.784 234.48V165.36H321.76C326.112 165.36 329.611 165.829 332.256 166.768C334.987 167.707 337.077 168.987 338.528 170.608C339.979 172.144 340.96 174.021 341.472 176.24C341.984 178.373 342.24 180.677 342.24 183.152V217.072C342.24 219.547 341.984 221.851 341.472 223.984C341.045 226.117 340.107 227.952 338.656 229.488C337.205 231.024 335.115 232.261 332.384 233.2C329.653 234.053 326.112 234.48 321.76 234.48H290.784ZM321.76 166.64H292.064V233.2H321.76C325.856 233.2 329.141 232.816 331.616 232.048C334.176 231.195 336.139 230.085 337.504 228.72C338.869 227.269 339.765 225.563 340.192 223.6C340.704 221.552 340.96 219.376 340.96 217.072V183.152C340.96 180.848 340.704 178.672 340.192 176.624C339.68 174.576 338.741 172.827 337.376 171.376C336.011 169.925 334.048 168.773 331.488 167.92C329.013 167.067 325.771 166.64 321.76 166.64ZM428.14 233.2V234.48H385.004V165.36H428.14V166.64H386.284V198.768H417.772V200.048H386.284V233.2H428.14ZM506.642 165.36V166.64H478.226C474.642 166.64 471.783 167.621 469.65 169.584C467.517 171.547 466.45 174.021 466.45 177.008V187.504C466.45 190.491 467.047 192.581 468.242 193.776C469.437 194.971 471.015 195.739 472.978 196.08L499.986 201.584C502.546 202.096 504.637 203.205 506.258 204.912C507.965 206.619 508.818 209.691 508.818 214.128V221.552C508.818 225.307 507.538 228.421 504.978 230.896C502.418 233.285 498.962 234.48 494.61 234.48H462.738V233.2H494.61C498.535 233.2 501.65 232.133 503.954 230C506.343 227.781 507.538 224.965 507.538 221.552V214.128C507.538 210.117 506.813 207.387 505.362 205.936C503.997 204.4 502.119 203.376 499.73 202.864L472.722 197.36C470.503 196.933 468.669 196.08 467.218 194.8C465.853 193.435 465.17 191.003 465.17 187.504V177.008C465.17 173.595 466.365 170.821 468.754 168.688C471.143 166.469 474.301 165.36 478.226 165.36H506.642ZM585.668 234.48H544.964V233.2H564.804V166.64H544.964V165.36H585.668V166.64H566.084V233.2H585.668V234.48ZM647.296 234.48C642.603 234.48 638.763 234.181 635.776 233.584C632.789 232.987 630.443 232.048 628.736 230.768C627.029 229.403 625.835 227.696 625.152 225.648C624.555 223.515 624.256 220.955 624.256 217.968V182.128C624.256 176.069 625.621 171.76 628.352 169.2C631.083 166.64 636.544 165.36 644.736 165.36H666.88V166.64H644.736C637.227 166.64 632.149 167.835 629.504 170.224C626.859 172.528 625.536 176.496 625.536 182.128V217.968C625.536 223.515 626.987 227.44 629.888 229.744C632.875 232.048 638.677 233.2 647.296 233.2H671.488V208.752H672.768V234.48H647.296ZM717.953 166.384L765.057 219.376V165.36H766.337V234.48H765.057V221.296L716.673 167.024C716.588 166.939 716.46 166.853 716.289 166.768C716.204 166.683 716.118 166.64 716.033 166.64C715.948 166.64 715.862 166.683 715.777 166.768C715.777 166.853 715.777 166.939 715.777 167.024V234.48H714.497V166.768C714.497 166.256 714.668 165.872 715.009 165.616C715.35 165.36 715.692 165.232 716.033 165.232C716.374 165.232 716.673 165.317 716.929 165.488C717.185 165.659 717.526 165.957 717.953 166.384ZM849.272 165.36V166.64H820.856C817.272 166.64 814.413 167.621 812.28 169.584C810.147 171.547 809.08 174.021 809.08 177.008V187.504C809.08 190.491 809.677 192.581 810.872 193.776C812.067 194.971 813.645 195.739 815.608 196.08L842.616 201.584C845.176 202.096 847.267 203.205 848.888 204.912C850.595 206.619 851.448 209.691 851.448 214.128V221.552C851.448 225.307 850.168 228.421 847.608 230.896C845.048 233.285 841.592 234.48 837.24 234.48H805.368V233.2H837.24C841.165 233.2 844.28 232.133 846.584 230C848.973 227.781 850.168 224.965 850.168 221.552V214.128C850.168 210.117 849.443 207.387 847.992 205.936C846.627 204.4 844.749 203.376 842.36 202.864L815.352 197.36C813.133 196.933 811.299 196.08 809.848 194.8C808.483 193.435 807.8 191.003 807.8 187.504V177.008C807.8 173.595 808.995 170.821 811.384 168.688C813.773 166.469 816.931 165.36 820.856 165.36H849.272Z"/>
</mask>
<path d="M290.784 234.48V165.36H321.76C326.112 165.36 329.611 165.829 332.256 166.768C334.987 167.707 337.077 168.987 338.528 170.608C339.979 172.144 340.96 174.021 341.472 176.24C341.984 178.373 342.24 180.677 342.24 183.152V217.072C342.24 219.547 341.984 221.851 341.472 223.984C341.045 226.117 340.107 227.952 338.656 229.488C337.205 231.024 335.115 232.261 332.384 233.2C329.653 234.053 326.112 234.48 321.76 234.48H290.784ZM321.76 166.64H292.064V233.2H321.76C325.856 233.2 329.141 232.816 331.616 232.048C334.176 231.195 336.139 230.085 337.504 228.72C338.869 227.269 339.765 225.563 340.192 223.6C340.704 221.552 340.96 219.376 340.96 217.072V183.152C340.96 180.848 340.704 178.672 340.192 176.624C339.68 174.576 338.741 172.827 337.376 171.376C336.011 169.925 334.048 168.773 331.488 167.92C329.013 167.067 325.771 166.64 321.76 166.64ZM428.14 233.2V234.48H385.004V165.36H428.14V166.64H386.284V198.768H417.772V200.048H386.284V233.2H428.14ZM506.642 165.36V166.64H478.226C474.642 166.64 471.783 167.621 469.65 169.584C467.517 171.547 466.45 174.021 466.45 177.008V187.504C466.45 190.491 467.047 192.581 468.242 193.776C469.437 194.971 471.015 195.739 472.978 196.08L499.986 201.584C502.546 202.096 504.637 203.205 506.258 204.912C507.965 206.619 508.818 209.691 508.818 214.128V221.552C508.818 225.307 507.538 228.421 504.978 230.896C502.418 233.285 498.962 234.48 494.61 234.48H462.738V233.2H494.61C498.535 233.2 501.65 232.133 503.954 230C506.343 227.781 507.538 224.965 507.538 221.552V214.128C507.538 210.117 506.813 207.387 505.362 205.936C503.997 204.4 502.119 203.376 499.73 202.864L472.722 197.36C470.503 196.933 468.669 196.08 467.218 194.8C465.853 193.435 465.17 191.003 465.17 187.504V177.008C465.17 173.595 466.365 170.821 468.754 168.688C471.143 166.469 474.301 165.36 478.226 165.36H506.642ZM585.668 234.48H544.964V233.2H564.804V166.64H544.964V165.36H585.668V166.64H566.084V233.2H585.668V234.48ZM647.296 234.48C642.603 234.48 638.763 234.181 635.776 233.584C632.789 232.987 630.443 232.048 628.736 230.768C627.029 229.403 625.835 227.696 625.152 225.648C624.555 223.515 624.256 220.955 624.256 217.968V182.128C624.256 176.069 625.621 171.76 628.352 169.2C631.083 166.64 636.544 165.36 644.736 165.36H666.88V166.64H644.736C637.227 166.64 632.149 167.835 629.504 170.224C626.859 172.528 625.536 176.496 625.536 182.128V217.968C625.536 223.515 626.987 227.44 629.888 229.744C632.875 232.048 638.677 233.2 647.296 233.2H671.488V208.752H672.768V234.48H647.296ZM717.953 166.384L765.057 219.376V165.36H766.337V234.48H765.057V221.296L716.673 167.024C716.588 166.939 716.46 166.853 716.289 166.768C716.204 166.683 716.118 166.64 716.033 166.64C715.948 166.64 715.862 166.683 715.777 166.768C715.777 166.853 715.777 166.939 715.777 167.024V234.48H714.497V166.768C714.497 166.256 714.668 165.872 715.009 165.616C715.35 165.36 715.692 165.232 716.033 165.232C716.374 165.232 716.673 165.317 716.929 165.488C717.185 165.659 717.526 165.957 717.953 166.384ZM849.272 165.36V166.64H820.856C817.272 166.64 814.413 167.621 812.28 169.584C810.147 171.547 809.08 174.021 809.08 177.008V187.504C809.08 190.491 809.677 192.581 810.872 193.776C812.067 194.971 813.645 195.739 815.608 196.08L842.616 201.584C845.176 202.096 847.267 203.205 848.888 204.912C850.595 206.619 851.448 209.691 851.448 214.128V221.552C851.448 225.307 850.168 228.421 847.608 230.896C845.048 233.285 841.592 234.48 837.24 234.48H805.368V233.2H837.24C841.165 233.2 844.28 232.133 846.584 230C848.973 227.781 850.168 224.965 850.168 221.552V214.128C850.168 210.117 849.443 207.387 847.992 205.936C846.627 204.4 844.749 203.376 842.36 202.864L815.352 197.36C813.133 196.933 811.299 196.08 809.848 194.8C808.483 193.435 807.8 191.003 807.8 187.504V177.008C807.8 173.595 808.995 170.821 811.384 168.688C813.773 166.469 816.931 165.36 820.856 165.36H849.272Z" fill="white"/>
<path d="M290.784 234.48H289.784V235.48H290.784V234.48ZM290.784 165.36V164.36H289.784V165.36H290.784ZM332.256 166.768L331.922 167.71L331.931 167.714L332.256 166.768ZM338.528 170.608L337.783 171.275L337.792 171.285L337.801 171.295L338.528 170.608ZM341.472 176.24L340.498 176.465L340.5 176.473L341.472 176.24ZM341.472 223.984L340.5 223.751L340.495 223.769L340.491 223.788L341.472 223.984ZM338.656 229.488L339.383 230.175L339.383 230.175L338.656 229.488ZM332.384 233.2L332.682 234.154L332.696 234.15L332.709 234.146L332.384 233.2ZM292.064 166.64V165.64H291.064V166.64H292.064ZM292.064 233.2H291.064V234.2H292.064V233.2ZM331.616 232.048L331.912 233.003L331.922 233L331.932 232.997L331.616 232.048ZM337.504 228.72L338.211 229.427L338.222 229.416L338.232 229.405L337.504 228.72ZM340.192 223.6L339.222 223.357L339.218 223.372L339.215 223.388L340.192 223.6ZM340.192 176.624L339.222 176.867L339.222 176.867L340.192 176.624ZM337.376 171.376L338.104 170.691L338.104 170.691L337.376 171.376ZM331.488 167.92L331.162 168.865L331.172 168.869L331.488 167.92ZM291.784 234.48V165.36H289.784V234.48H291.784ZM290.784 166.36H321.76V164.36H290.784V166.36ZM321.76 166.36C326.054 166.36 329.426 166.825 331.922 167.71L332.59 165.826C329.795 164.834 326.17 164.36 321.76 164.36V166.36ZM331.931 167.714C334.551 168.614 336.477 169.816 337.783 171.275L339.273 169.941C337.677 168.158 335.422 166.799 332.581 165.822L331.931 167.714ZM337.801 171.295C339.12 172.691 340.022 174.405 340.498 176.465L342.446 176.015C341.898 173.637 340.837 171.597 339.255 169.921L337.801 171.295ZM340.5 176.473C340.991 178.521 341.24 180.746 341.24 183.152H343.24C343.24 180.609 342.977 178.225 342.444 176.007L340.5 176.473ZM341.24 183.152V217.072H343.24V183.152H341.24ZM341.24 217.072C341.24 219.478 340.991 221.703 340.5 223.751L342.444 224.217C342.977 221.999 343.24 219.615 343.24 217.072H341.24ZM340.491 223.788C340.1 225.743 339.247 227.406 337.929 228.801L339.383 230.175C340.967 228.498 341.99 226.492 342.453 224.18L340.491 223.788ZM337.929 228.801C336.623 230.185 334.69 231.35 332.059 232.254L332.709 234.146C335.539 233.173 337.788 231.863 339.383 230.175L337.929 228.801ZM332.086 232.246C329.488 233.057 326.058 233.48 321.76 233.48V235.48C326.166 235.48 329.819 235.049 332.682 234.154L332.086 232.246ZM321.76 233.48H290.784V235.48H321.76V233.48ZM321.76 165.64H292.064V167.64H321.76V165.64ZM291.064 166.64V233.2H293.064V166.64H291.064ZM292.064 234.2H321.76V232.2H292.064V234.2ZM321.76 234.2C325.905 234.2 329.303 233.813 331.912 233.003L331.32 231.093C328.98 231.819 325.807 232.2 321.76 232.2V234.2ZM331.932 232.997C334.584 232.113 336.701 230.937 338.211 229.427L336.797 228.013C335.576 229.234 333.768 230.277 331.3 231.099L331.932 232.997ZM338.232 229.405C339.723 227.821 340.704 225.951 341.169 223.812L339.215 223.388C338.826 225.174 338.016 226.717 336.776 228.035L338.232 229.405ZM341.162 223.843C341.696 221.708 341.96 219.45 341.96 217.072H339.96C339.96 219.302 339.712 221.396 339.222 223.357L341.162 223.843ZM341.96 217.072V183.152H339.96V217.072H341.96ZM341.96 183.152C341.96 180.774 341.696 178.516 341.162 176.381L339.222 176.867C339.712 178.828 339.96 180.922 339.96 183.152H341.96ZM341.162 176.381C340.611 174.178 339.594 172.273 338.104 170.691L336.648 172.061C337.889 173.38 338.749 174.974 339.222 176.867L341.162 176.381ZM338.104 170.691C336.592 169.084 334.468 167.859 331.804 166.971L331.172 168.869C333.628 169.687 335.429 170.766 336.648 172.061L338.104 170.691ZM331.814 166.975C329.194 166.071 325.829 165.64 321.76 165.64V167.64C325.712 167.64 328.832 168.062 331.162 168.865L331.814 166.975ZM428.14 233.2H429.14V232.2H428.14V233.2ZM428.14 234.48V235.48H429.14V234.48H428.14ZM385.004 234.48H384.004V235.48H385.004V234.48ZM385.004 165.36V164.36H384.004V165.36H385.004ZM428.14 165.36H429.14V164.36H428.14V165.36ZM428.14 166.64V167.64H429.14V166.64H428.14ZM386.284 166.64V165.64H385.284V166.64H386.284ZM386.284 198.768H385.284V199.768H386.284V198.768ZM417.772 198.768H418.772V197.768H417.772V198.768ZM417.772 200.048V201.048H418.772V200.048H417.772ZM386.284 200.048V199.048H385.284V200.048H386.284ZM386.284 233.2H385.284V234.2H386.284V233.2ZM427.14 233.2V234.48H429.14V233.2H427.14ZM428.14 233.48H385.004V235.48H428.14V233.48ZM386.004 234.48V165.36H384.004V234.48H386.004ZM385.004 166.36H428.14V164.36H385.004V166.36ZM427.14 165.36V166.64H429.14V165.36H427.14ZM428.14 165.64H386.284V167.64H428.14V165.64ZM385.284 166.64V198.768H387.284V166.64H385.284ZM386.284 199.768H417.772V197.768H386.284V199.768ZM416.772 198.768V200.048H418.772V198.768H416.772ZM417.772 199.048H386.284V201.048H417.772V199.048ZM385.284 200.048V233.2H387.284V200.048H385.284ZM386.284 234.2H428.14V232.2H386.284V234.2ZM506.642 165.36H507.642V164.36H506.642V165.36ZM506.642 166.64V167.64H507.642V166.64H506.642ZM468.242 193.776L468.949 193.069L468.949 193.069L468.242 193.776ZM472.978 196.08L473.178 195.1L473.164 195.097L473.149 195.095L472.978 196.08ZM499.986 201.584L499.786 202.564L499.79 202.565L499.986 201.584ZM506.258 204.912L505.533 205.601L505.542 205.61L505.551 205.619L506.258 204.912ZM504.978 230.896L505.66 231.627L505.667 231.621L505.673 231.615L504.978 230.896ZM462.738 234.48H461.738V235.48H462.738V234.48ZM462.738 233.2V232.2H461.738V233.2H462.738ZM503.954 230L504.633 230.734L504.634 230.733L503.954 230ZM505.362 205.936L504.615 206.6L504.634 206.622L504.655 206.643L505.362 205.936ZM499.73 202.864L499.94 201.886L499.93 201.884L499.73 202.864ZM472.722 197.36L472.922 196.38L472.911 196.378L472.722 197.36ZM467.218 194.8L466.511 195.507L466.533 195.529L466.556 195.55L467.218 194.8ZM468.754 168.688L469.42 169.434L469.427 169.427L469.434 169.421L468.754 168.688ZM505.642 165.36V166.64H507.642V165.36H505.642ZM506.642 165.64H478.226V167.64H506.642V165.64ZM478.226 165.64C474.453 165.64 471.332 166.678 468.973 168.848L470.327 170.32C472.235 168.565 474.831 167.64 478.226 167.64V165.64ZM468.973 168.848C466.627 171.007 465.45 173.751 465.45 177.008H467.45C467.45 174.291 468.407 172.087 470.327 170.32L468.973 168.848ZM465.45 177.008V187.504H467.45V177.008H465.45ZM465.45 187.504C465.45 190.568 466.052 193.001 467.535 194.483L468.949 193.069C468.042 192.162 467.45 190.413 467.45 187.504H465.45ZM467.535 194.483C468.9 195.848 470.678 196.695 472.807 197.065L473.149 195.095C471.352 194.782 469.973 194.093 468.949 193.069L467.535 194.483ZM472.778 197.06L499.786 202.564L500.186 200.604L473.178 195.1L472.778 197.06ZM499.79 202.565C502.171 203.041 504.069 204.06 505.533 205.601L506.983 204.223C505.204 202.351 502.921 201.151 500.182 200.603L499.79 202.565ZM505.551 205.619C506.964 207.033 507.818 209.755 507.818 214.128H509.818C509.818 209.627 508.965 206.205 506.965 204.205L505.551 205.619ZM507.818 214.128V221.552H509.818V214.128H507.818ZM507.818 221.552C507.818 225.052 506.637 227.902 504.283 230.177L505.673 231.615C508.44 228.941 509.818 225.561 509.818 221.552H507.818ZM504.296 230.165C501.963 232.342 498.773 233.48 494.61 233.48V235.48C499.151 235.48 502.873 234.229 505.66 231.627L504.296 230.165ZM494.61 233.48H462.738V235.48H494.61V233.48ZM463.738 234.48V233.2H461.738V234.48H463.738ZM462.738 234.2H494.61V232.2H462.738V234.2ZM494.61 234.2C498.721 234.2 502.101 233.078 504.633 230.734L503.275 229.266C501.199 231.188 498.349 232.2 494.61 232.2V234.2ZM504.634 230.733C507.238 228.315 508.538 225.229 508.538 221.552H506.538C506.538 224.702 505.449 227.248 503.274 229.267L504.634 230.733ZM508.538 221.552V214.128H506.538V221.552H508.538ZM508.538 214.128C508.538 210.074 507.821 206.981 506.069 205.229L504.655 206.643C505.804 207.793 506.538 210.16 506.538 214.128H508.538ZM506.109 205.272C504.577 203.548 502.496 202.434 499.94 201.886L499.52 203.842C501.742 204.318 503.416 205.252 504.615 206.6L506.109 205.272ZM499.93 201.884L472.922 196.38L472.522 198.34L499.53 203.844L499.93 201.884ZM472.911 196.378C470.838 195.979 469.175 195.193 467.88 194.05L466.556 195.55C468.162 196.967 470.169 197.887 472.533 198.342L472.911 196.378ZM467.925 194.093C466.851 193.019 466.17 190.933 466.17 187.504H464.17C464.17 191.072 464.854 193.85 466.511 195.507L467.925 194.093ZM466.17 187.504V177.008H464.17V187.504H466.17ZM466.17 177.008C466.17 173.858 467.258 171.364 469.42 169.434L468.088 167.942C465.471 170.279 464.17 173.331 464.17 177.008H466.17ZM469.434 169.421C471.602 167.408 474.499 166.36 478.226 166.36V164.36C474.103 164.36 470.684 165.531 468.074 167.955L469.434 169.421ZM478.226 166.36H506.642V164.36H478.226V166.36ZM585.668 234.48V235.48H586.668V234.48H585.668ZM544.964 234.48H543.964V235.48H544.964V234.48ZM544.964 233.2V232.2H543.964V233.2H544.964ZM564.804 233.2V234.2H565.804V233.2H564.804ZM564.804 166.64H565.804V165.64H564.804V166.64ZM544.964 166.64H543.964V167.64H544.964V166.64ZM544.964 165.36V164.36H543.964V165.36H544.964ZM585.668 165.36H586.668V164.36H585.668V165.36ZM585.668 166.64V167.64H586.668V166.64H585.668ZM566.084 166.64V165.64H565.084V166.64H566.084ZM566.084 233.2H565.084V234.2H566.084V233.2ZM585.668 233.2H586.668V232.2H585.668V233.2ZM585.668 233.48H544.964V235.48H585.668V233.48ZM545.964 234.48V233.2H543.964V234.48H545.964ZM544.964 234.2H564.804V232.2H544.964V234.2ZM565.804 233.2V166.64H563.804V233.2H565.804ZM564.804 165.64H544.964V167.64H564.804V165.64ZM545.964 166.64V165.36H543.964V166.64H545.964ZM544.964 166.36H585.668V164.36H544.964V166.36ZM584.668 165.36V166.64H586.668V165.36H584.668ZM585.668 165.64H566.084V167.64H585.668V165.64ZM565.084 166.64V233.2H567.084V166.64H565.084ZM566.084 234.2H585.668V232.2H566.084V234.2ZM584.668 233.2V234.48H586.668V233.2H584.668ZM635.776 233.584L635.58 234.565L635.58 234.565L635.776 233.584ZM628.736 230.768L628.111 231.549L628.124 231.559L628.136 231.568L628.736 230.768ZM625.152 225.648L624.189 225.918L624.196 225.941L624.203 225.964L625.152 225.648ZM628.352 169.2L629.036 169.93L629.036 169.93L628.352 169.2ZM666.88 165.36H667.88V164.36H666.88V165.36ZM666.88 166.64V167.64H667.88V166.64H666.88ZM629.504 170.224L630.161 170.978L630.168 170.972L630.174 170.966L629.504 170.224ZM629.888 229.744L629.266 230.527L629.277 230.536L629.888 229.744ZM671.488 233.2V234.2H672.488V233.2H671.488ZM671.488 208.752V207.752H670.488V208.752H671.488ZM672.768 208.752H673.768V207.752H672.768V208.752ZM672.768 234.48V235.48H673.768V234.48H672.768ZM647.296 233.48C642.637 233.48 638.869 233.183 635.972 232.603L635.58 234.565C638.656 235.18 642.568 235.48 647.296 235.48V233.48ZM635.972 232.603C633.074 232.024 630.883 231.129 629.336 229.968L628.136 231.568C630.002 232.967 632.505 233.95 635.58 234.565L635.972 232.603ZM629.361 229.987C627.803 228.741 626.722 227.195 626.101 225.332L624.203 225.964C624.948 228.197 626.256 230.065 628.111 231.549L629.361 229.987ZM626.115 225.378C625.549 223.357 625.256 220.893 625.256 217.968H623.256C623.256 221.016 623.56 223.672 624.189 225.918L626.115 225.378ZM625.256 217.968V182.128H623.256V217.968H625.256ZM625.256 182.128C625.256 176.18 626.602 172.211 629.036 169.93L627.668 168.47C624.641 171.309 623.256 175.958 623.256 182.128H625.256ZM629.036 169.93C630.225 168.815 632.085 167.912 634.724 167.294C637.354 166.677 640.685 166.36 644.736 166.36V164.36C640.595 164.36 637.099 164.683 634.268 165.346C631.445 166.008 629.21 167.025 627.668 168.47L629.036 169.93ZM644.736 166.36H666.88V164.36H644.736V166.36ZM665.88 165.36V166.64H667.88V165.36H665.88ZM666.88 165.64H644.736V167.64H666.88V165.64ZM644.736 165.64C640.935 165.64 637.706 165.942 635.067 166.563C632.435 167.182 630.326 168.134 628.834 169.482L630.174 170.966C631.327 169.925 633.08 169.085 635.525 168.509C637.964 167.936 641.028 167.64 644.736 167.64V165.64ZM628.847 169.47C625.881 172.053 624.536 176.379 624.536 182.128H626.536C626.536 176.613 627.836 173.003 630.161 170.978L628.847 169.47ZM624.536 182.128V217.968H626.536V182.128H624.536ZM624.536 217.968C624.536 223.664 626.026 227.954 629.266 230.527L630.51 228.961C627.947 226.926 626.536 223.365 626.536 217.968H624.536ZM629.277 230.536C630.943 231.821 633.31 232.726 636.285 233.317C639.273 233.91 642.948 234.2 647.296 234.2V232.2C643.025 232.2 639.49 231.914 636.675 231.355C633.847 230.794 631.82 229.971 630.499 228.952L629.277 230.536ZM647.296 234.2H671.488V232.2H647.296V234.2ZM672.488 233.2V208.752H670.488V233.2H672.488ZM671.488 209.752H672.768V207.752H671.488V209.752ZM671.768 208.752V234.48H673.768V208.752H671.768ZM672.768 233.48H647.296V235.48H672.768V233.48ZM717.953 166.384L718.7 165.72L718.681 165.698L718.66 165.677L717.953 166.384ZM765.057 219.376L764.31 220.04L766.057 222.006V219.376H765.057ZM765.057 165.36V164.36H764.057V165.36H765.057ZM766.337 165.36H767.337V164.36H766.337V165.36ZM766.337 234.48V235.48H767.337V234.48H766.337ZM765.057 234.48H764.057V235.48H765.057V234.48ZM765.057 221.296H766.057V220.915L765.803 220.631L765.057 221.296ZM716.673 167.024L717.419 166.359L717.4 166.337L717.38 166.317L716.673 167.024ZM716.289 166.768L715.582 167.475L715.697 167.59L715.842 167.662L716.289 166.768ZM715.777 166.768L715.07 166.061L714.777 166.354V166.768H715.777ZM715.777 234.48V235.48H716.777V234.48H715.777ZM714.497 234.48H713.497V235.48H714.497V234.48ZM715.009 165.616L714.409 164.816L714.409 164.816L715.009 165.616ZM716.929 165.488L716.374 166.32L716.374 166.32L716.929 165.488ZM717.206 167.048L764.31 220.04L765.804 218.712L718.7 165.72L717.206 167.048ZM766.057 219.376V165.36H764.057V219.376H766.057ZM765.057 166.36H766.337V164.36H765.057V166.36ZM765.337 165.36V234.48H767.337V165.36H765.337ZM766.337 233.48H765.057V235.48H766.337V233.48ZM766.057 234.48V221.296H764.057V234.48H766.057ZM765.803 220.631L717.419 166.359L715.927 167.689L764.311 221.961L765.803 220.631ZM717.38 166.317C717.188 166.125 716.954 165.982 716.736 165.874L715.842 167.662C715.898 167.691 715.936 167.713 715.958 167.728C715.982 167.744 715.98 167.746 715.966 167.731L717.38 166.317ZM716.996 166.061C716.802 165.867 716.477 165.64 716.033 165.64V167.64C715.76 167.64 715.606 167.499 715.582 167.475L716.996 166.061ZM716.033 165.64C715.589 165.64 715.264 165.867 715.07 166.061L716.484 167.475C716.46 167.499 716.306 167.64 716.033 167.64V165.64ZM714.777 166.768C714.777 166.768 714.777 166.768 714.777 166.768C714.777 166.769 714.777 166.769 714.777 166.769C714.777 166.769 714.777 166.769 714.777 166.769C714.777 166.77 714.777 166.77 714.777 166.77C714.777 166.77 714.777 166.77 714.777 166.77C714.777 166.771 714.777 166.771 714.777 166.771C714.777 166.771 714.777 166.771 714.777 166.771C714.777 166.772 714.777 166.772 714.777 166.772C714.777 166.772 714.777 166.772 714.777 166.772C714.777 166.773 714.777 166.773 714.777 166.773C714.777 166.773 714.777 166.773 714.777 166.773C714.777 166.774 714.777 166.774 714.777 166.774C714.777 166.774 714.777 166.774 714.777 166.774C714.777 166.775 714.777 166.775 714.777 166.775C714.777 166.775 714.777 166.775 714.777 166.775C714.777 166.776 714.777 166.776 714.777 166.776C714.777 166.776 714.777 166.776 714.777 166.776C714.777 166.777 714.777 166.777 714.777 166.777C714.777 166.777 714.777 166.777 714.777 166.777C714.777 166.778 714.777 166.778 714.777 166.778C714.777 166.778 714.777 166.778 714.777 166.778C714.777 166.779 714.777 166.779 714.777 166.779C714.777 166.779 714.777 166.779 714.777 166.779C714.777 166.78 714.777 166.78 714.777 166.78C714.777 166.78 714.777 166.78 714.777 166.78C714.777 166.781 714.777 166.781 714.777 166.781C714.777 166.781 714.777 166.781 714.777 166.781C714.777 166.782 714.777 166.782 714.777 166.782C714.777 166.782 714.777 166.782 714.777 166.782C714.777 166.783 714.777 166.783 714.777 166.783C714.777 166.783 714.777 166.783 714.777 166.783C714.777 166.784 714.777 166.784 714.777 166.784C714.777 166.784 714.777 166.784 714.777 166.784C714.777 166.785 714.777 166.785 714.777 166.785C714.777 166.785 714.777 166.785 714.777 166.785C714.777 166.786 714.777 166.786 714.777 166.786C714.777 166.786 714.777 166.786 714.777 166.786C714.777 166.787 714.777 166.787 714.777 166.787C714.777 166.787 714.777 166.787 714.777 166.787C714.777 166.788 714.777 166.788 714.777 166.788C714.777 166.788 714.777 166.788 714.777 166.788C714.777 166.789 714.777 166.789 714.777 166.789C714.777 166.789 714.777 166.789 714.777 166.789C714.777 166.79 714.777 166.79 714.777 166.79C714.777 166.79 714.777 166.79 714.777 166.79C714.777 166.791 714.777 166.791 714.777 166.791C714.777 166.791 714.777 166.791 714.777 166.791C714.777 166.792 714.777 166.792 714.777 166.792C714.777 166.792 714.777 166.792 714.777 166.792C714.777 166.793 714.777 166.793 714.777 166.793C714.777 166.793 714.777 166.793 714.777 166.793C714.777 166.794 714.777 166.794 714.777 166.794C714.777 166.794 714.777 166.794 714.777 166.794C714.777 166.795 714.777 166.795 714.777 166.795C714.777 166.795 714.777 166.795 714.777 166.795C714.777 166.796 714.777 166.796 714.777 166.796C714.777 166.796 714.777 166.796 714.777 166.796C714.777 166.797 714.777 166.797 714.777 166.797C714.777 166.797 714.777 166.797 714.777 166.797C714.777 166.798 714.777 166.798 714.777 166.798C714.777 166.798 714.777 166.798 714.777 166.798C714.777 166.799 714.777 166.799 714.777 166.799C714.777 166.799 714.777 166.799 714.777 166.799C714.777 166.8 714.777 166.8 714.777 166.8C714.777 166.8 714.777 166.8 714.777 166.8C714.777 166.801 714.777 166.801 714.777 166.801C714.777 166.801 714.777 166.801 714.777 166.801C714.777 166.802 714.777 166.802 714.777 166.802C714.777 166.802 714.777 166.802 714.777 166.802C714.777 166.803 714.777 166.803 714.777 166.803C714.777 166.803 714.777 166.803 714.777 166.803C714.777 166.804 714.777 166.804 714.777 166.804C714.777 166.804 714.777 166.804 714.777 166.804C714.777 166.805 714.777 166.805 714.777 166.805C714.777 166.805 714.777 166.805 714.777 166.805C714.777 166.806 714.777 166.806 714.777 166.806C714.777 166.806 714.777 166.806 714.777 166.806C714.777 166.807 714.777 166.807 714.777 166.807C714.777 166.807 714.777 166.807 714.777 166.807C714.777 166.808 714.777 166.808 714.777 166.808C714.777 166.808 714.777 166.808 714.777 166.808C714.777 166.809 714.777 166.809 714.777 166.809C714.777 166.809 714.777 166.809 714.777 166.809C714.777 166.81 714.777 166.81 714.777 166.81C714.777 166.81 714.777 166.81 714.777 166.81C714.777 166.811 714.777 166.811 714.777 166.811C714.777 166.811 714.777 166.811 714.777 166.811C714.777 166.812 714.777 166.812 714.777 166.812C714.777 166.812 714.777 166.812 714.777 166.812C714.777 166.813 714.777 166.813 714.777 166.813C714.777 166.813 714.777 166.813 714.777 166.813C714.777 166.814 714.777 166.814 714.777 166.814C714.777 166.814 714.777 166.814 714.777 166.814C714.777 166.815 714.777 166.815 714.777 166.815C714.777 166.815 714.777 166.815 714.777 166.815C714.777 166.816 714.777 166.816 714.777 166.816C714.777 166.816 714.777 166.816 714.777 166.816C714.777 166.817 714.777 166.817 714.777 166.817C714.777 166.817 714.777 166.817 714.777 166.817C714.777 166.818 714.777 166.818 714.777 166.818C714.777 166.818 714.777 166.818 714.777 166.818C714.777 166.819 714.777 166.819 714.777 166.819C714.777 166.819 714.777 166.819 714.777 166.819C714.777 166.82 714.777 166.82 714.777 166.82C714.777 166.82 714.777 166.82 714.777 166.82C714.777 166.821 714.777 166.821 714.777 166.821C714.777 166.821 714.777 166.821 714.777 166.821C714.777 166.822 714.777 166.822 714.777 166.822C714.777 166.822 714.777 166.822 714.777 166.822C714.777 166.823 714.777 166.823 714.777 166.823C714.777 166.823 714.777 166.823 714.777 166.823C714.777 166.824 714.777 166.824 714.777 166.824C714.777 166.824 714.777 166.824 714.777 166.824C714.777 166.825 714.777 166.825 714.777 166.825C714.777 166.825 714.777 166.825 714.777 166.825C714.777 166.826 714.777 166.826 714.777 166.826C714.777 166.826 714.777 166.826 714.777 166.826C714.777 166.827 714.777 166.827 714.777 166.827C714.777 166.827 714.777 166.827 714.777 166.827C714.777 166.828 714.777 166.828 714.777 166.828C714.777 166.828 714.777 166.828 714.777 166.828C714.777 166.829 714.777 166.829 714.777 166.829C714.777 166.829 714.777 166.829 714.777 166.829C714.777 166.83 714.777 166.83 714.777 166.83C714.777 166.83 714.777 166.83 714.777 166.83C714.777 166.831 714.777 166.831 714.777 166.831C714.777 166.831 714.777 166.831 714.777 166.831C714.777 166.832 714.777 166.832 714.777 166.832C714.777 166.832 714.777 166.832 714.777 166.832C714.777 166.833 714.777 166.833 714.777 166.833C714.777 166.833 714.777 166.833 714.777 166.833C714.777 166.834 714.777 166.834 714.777 166.834C714.777 166.834 714.777 166.834 714.777 166.834C714.777 166.835 714.777 166.835 714.777 166.835C714.777 166.835 714.777 166.835 714.777 166.835C714.777 166.836 714.777 166.836 714.777 166.836C714.777 166.836 714.777 166.836 714.777 166.836C714.777 166.837 714.777 166.837 714.777 166.837C714.777 166.837 714.777 166.837 714.777 166.837C714.777 166.838 714.777 166.838 714.777 166.838C714.777 166.838 714.777 166.838 714.777 166.838C714.777 166.839 714.777 166.839 714.777 166.839C714.777 166.839 714.777 166.839 714.777 166.839C714.777 166.84 714.777 166.84 714.777 166.84C714.777 166.84 714.777 166.84 714.777 166.84C714.777 166.841 714.777 166.841 714.777 166.841C714.777 166.841 714.777 166.841 714.777 166.841C714.777 166.842 714.777 166.842 714.777 166.842C714.777 166.842 714.777 166.842 714.777 166.842C714.777 166.843 714.777 166.843 714.777 166.843C714.777 166.843 714.777 166.843 714.777 166.843C714.777 166.844 714.777 166.844 714.777 166.844C714.777 166.844 714.777 166.844 714.777 166.844C714.777 166.845 714.777 166.845 714.777 166.845C714.777 166.845 714.777 166.845 714.777 166.845C714.777 166.846 714.777 166.846 714.777 166.846C714.777 166.846 714.777 166.846 714.777 166.846C714.777 166.847 714.777 166.847 714.777 166.847C714.777 166.847 714.777 166.847 714.777 166.847C714.777 166.848 714.777 166.848 714.777 166.848C714.777 166.848 714.777 166.848 714.777 166.848C714.777 166.849 714.777 166.849 714.777 166.849C714.777 166.849 714.777 166.849 714.777 166.849C714.777 166.85 714.777 166.85 714.777 166.85C714.777 166.85 714.777 166.85 714.777 166.85C714.777 166.851 714.777 166.851 714.777 166.851C714.777 166.851 714.777 166.851 714.777 166.851C714.777 166.852 714.777 166.852 714.777 166.852C714.777 166.852 714.777 166.852 714.777 166.852C714.777 166.853 714.777 166.853 714.777 166.853C714.777 166.853 714.777 166.853 714.777 166.853C714.777 166.854 714.777 166.854 714.777 166.854C714.777 166.854 714.777 166.854 714.777 166.854C714.777 166.855 714.777 166.855 714.777 166.855C714.777 166.855 714.777 166.855 714.777 166.855C714.777 166.856 714.777 166.856 714.777 166.856C714.777 166.856 714.777 166.856 714.777 166.856C714.777 166.857 714.777 166.857 714.777 166.857C714.777 166.857 714.777 166.857 714.777 166.857C714.777 166.858 714.777 166.858 714.777 166.858C714.777 166.858 714.777 166.858 714.777 166.858C714.777 166.859 714.777 166.859 714.777 166.859C714.777 166.859 714.777 166.859 714.777 166.859C714.777 166.86 714.777 166.86 714.777 166.86C714.777 166.86 714.777 166.86 714.777 166.86C714.777 166.861 714.777 166.861 714.777 166.861C714.777 166.861 714.777 166.861 714.777 166.861C714.777 166.862 714.777 166.862 714.777 166.862C714.777 166.862 714.777 166.862 714.777 166.862C714.777 166.863 714.777 166.863 714.777 166.863C714.777 166.863 714.777 166.863 714.777 166.863C714.777 166.864 714.777 166.864 714.777 166.864C714.777 166.864 714.777 166.864 714.777 166.864C714.777 166.865 714.777 166.865 714.777 166.865C714.777 166.865 714.777 166.865 714.777 166.865C714.777 166.866 714.777 166.866 714.777 166.866C714.777 166.866 714.777 166.866 714.777 166.866C714.777 166.867 714.777 166.867 714.777 166.867C714.777 166.867 714.777 166.867 714.777 166.867C714.777 166.868 714.777 166.868 714.777 166.868C714.777 166.868 714.777 166.868 714.777 166.868C714.777 166.869 714.777 166.869 714.777 166.869C714.777 166.869 714.777 166.869 714.777 166.869C714.777 166.87 714.777 166.87 714.777 166.87C714.777 166.87 714.777 166.87 714.777 166.87C714.777 166.871 714.777 166.871 714.777 166.871C714.777 166.871 714.777 166.871 714.777 166.871C714.777 166.872 714.777 166.872 714.777 166.872C714.777 166.872 714.777 166.872 714.777 166.872C714.777 166.873 714.777 166.873 714.777 166.873C714.777 166.873 714.777 166.873 714.777 166.873C714.777 166.874 714.777 166.874 714.777 166.874C714.777 166.874 714.777 166.874 714.777 166.874C714.777 166.875 714.777 166.875 714.777 166.875C714.777 166.875 714.777 166.875 714.777 166.875C714.777 166.876 714.777 166.876 714.777 166.876C714.777 166.876 714.777 166.876 714.777 166.876C714.777 166.877 714.777 166.877 714.777 166.877C714.777 166.877 714.777 166.877 714.777 166.877C714.777 166.878 714.777 166.878 714.777 166.878C714.777 166.878 714.777 166.878 714.777 166.878C714.777 166.879 714.777 166.879 714.777 166.879C714.777 166.879 714.777 166.879 714.777 166.879C714.777 166.88 714.777 166.88 714.777 166.88C714.777 166.88 714.777 166.88 714.777 166.88C714.777 166.881 714.777 166.881 714.777 166.881C714.777 166.881 714.777 166.881 714.777 166.881C714.777 166.882 714.777 166.882 714.777 166.882C714.777 166.882 714.777 166.882 714.777 166.882C714.777 166.883 714.777 166.883 714.777 166.883C714.777 166.883 714.777 166.883 714.777 166.883C714.777 166.884 714.777 166.884 714.777 166.884C714.777 166.884 714.777 166.884 714.777 166.884C714.777 166.885 714.777 166.885 714.777 166.885C714.777 166.885 714.777 166.885 714.777 166.885C714.777 166.886 714.777 166.886 714.777 166.886C714.777 166.886 714.777 166.886 714.777 166.886C714.777 166.887 714.777 166.887 714.777 166.887C714.777 166.887 714.777 166.887 714.777 166.887C714.777 166.888 714.777 166.888 714.777 166.888C714.777 166.888 714.777 166.888 714.777 166.888C714.777 166.889 714.777 166.889 714.777 166.889C714.777 166.889 714.777 166.889 714.777 166.889C714.777 166.89 714.777 166.89 714.777 166.89C714.777 166.89 714.777 166.89 714.777 166.89C714.777 166.891 714.777 166.891 714.777 166.891C714.777 166.891 714.777 166.891 714.777 166.891C714.777 166.892 714.777 166.892 714.777 166.892C714.777 166.892 714.777 166.892 714.777 166.892C714.777 166.893 714.777 166.893 714.777 166.893C714.777 166.893 714.777 166.893 714.777 166.893C714.777 166.894 714.777 166.894 714.777 166.894C714.777 166.894 714.777 166.894 714.777 166.894C714.777 166.895 714.777 166.895 714.777 166.895C714.777 166.895 714.777 166.895 714.777 166.895C714.777 166.896 714.777 166.896 714.777 166.896C714.777 166.896 714.777 166.896 714.777 166.896C714.777 166.897 714.777 166.897 714.777 166.897C714.777 166.897 714.777 166.897 714.777 166.897C714.777 166.898 714.777 166.898 714.777 166.898C714.777 166.898 714.777 166.898 714.777 166.898C714.777 166.899 714.777 166.899 714.777 166.899C714.777 166.899 714.777 166.899 714.777 166.899C714.777 166.9 714.777 166.9 714.777 166.9C714.777 166.9 714.777 166.9 714.777 166.9C714.777 166.901 714.777 166.901 714.777 166.901C714.777 166.901 714.777 166.901 714.777 166.901C714.777 166.902 714.777 166.902 714.777 166.902C714.777 166.902 714.777 166.902 714.777 166.902C714.777 166.903 714.777 166.903 714.777 166.903C714.777 166.903 714.777 166.903 714.777 166.903C714.777 166.904 714.777 166.904 714.777 166.904C714.777 166.904 714.777 166.904 714.777 166.904C714.777 166.905 714.777 166.905 714.777 166.905C714.777 166.905 714.777 166.905 714.777 166.905C714.777 166.906 714.777 166.906 714.777 166.906C714.777 166.906 714.777 166.906 714.777 166.906C714.777 166.907 714.777 166.907 714.777 166.907C714.777 166.907 714.777 166.907 714.777 166.907C714.777 166.908 714.777 166.908 714.777 166.908C714.777 166.908 714.777 166.908 714.777 166.908C714.777 166.909 714.777 166.909 714.777 166.909C714.777 166.909 714.777 166.909 714.777 166.909C714.777 166.91 714.777 166.91 714.777 166.91C714.777 166.91 714.777 166.91 714.777 166.91C714.777 166.911 714.777 166.911 714.777 166.911C714.777 166.911 714.777 166.911 714.777 166.911C714.777 166.912 714.777 166.912 714.777 166.912C714.777 166.912 714.777 166.912 714.777 166.912C714.777 166.913 714.777 166.913 714.777 166.913C714.777 166.913 714.777 166.913 714.777 166.913C714.777 166.914 714.777 166.914 714.777 166.914C714.777 166.914 714.777 166.914 714.777 166.914C714.777 166.915 714.777 166.915 714.777 166.915C714.777 166.915 714.777 166.915 714.777 166.915C714.777 166.916 714.777 166.916 714.777 166.916C714.777 166.916 714.777 166.916 714.777 166.916C714.777 166.917 714.777 166.917 714.777 166.917C714.777 166.917 714.777 166.917 714.777 166.917C714.777 166.918 714.777 166.918 714.777 166.918C714.777 166.918 714.777 166.918 714.777 166.918C714.777 166.919 714.777 166.919 714.777 166.919C714.777 166.919 714.777 166.919 714.777 166.919C714.777 166.92 714.777 166.92 714.777 166.92C714.777 166.92 714.777 166.92 714.777 166.92C714.777 166.921 714.777 166.921 714.777 166.921C714.777 166.921 714.777 166.921 714.777 166.921C714.777 166.922 714.777 166.922 714.777 166.922C714.777 166.922 714.777 166.922 714.777 166.922C714.777 166.923 714.777 166.923 714.777 166.923C714.777 166.923 714.777 166.923 714.777 166.923C714.777 166.924 714.777 166.924 714.777 166.924C714.777 166.924 714.777 166.924 714.777 166.924C714.777 166.925 714.777 166.925 714.777 166.925C714.777 166.925 714.777 166.925 714.777 166.925C714.777 166.926 714.777 166.926 714.777 166.926C714.777 166.926 714.777 166.926 714.777 166.926C714.777 166.927 714.777 166.927 714.777 166.927C714.777 166.927 714.777 166.927 714.777 166.927C714.777 166.928 714.777 166.928 714.777 166.928C714.777 166.928 714.777 166.928 714.777 166.928C714.777 166.929 714.777 166.929 714.777 166.929C714.777 166.929 714.777 166.929 714.777 166.929C714.777 166.93 714.777 166.93 714.777 166.93C714.777 166.93 714.777 166.93 714.777 166.93C714.777 166.931 714.777 166.931 714.777 166.931C714.777 166.931 714.777 166.931 714.777 166.931C714.777 166.932 714.777 166.932 714.777 166.932C714.777 166.932 714.777 166.932 714.777 166.932C714.777 166.933 714.777 166.933 714.777 166.933C714.777 166.933 714.777 166.933 714.777 166.933C714.777 166.934 714.777 166.934 714.777 166.934C714.777 166.934 714.777 166.934 714.777 166.934C714.777 166.935 714.777 166.935 714.777 166.935C714.777 166.935 714.777 166.935 714.777 166.935C714.777 166.936 714.777 166.936 714.777 166.936C714.777 166.936 714.777 166.936 714.777 166.936C714.777 166.937 714.777 166.937 714.777 166.937C714.777 166.937 714.777 166.937 714.777 166.937C714.777 166.938 714.777 166.938 714.777 166.938C714.777 166.938 714.777 166.938 714.777 166.938C714.777 166.939 714.777 166.939 714.777 166.939C714.777 166.939 714.777 166.939 714.777 166.939C714.777 166.94 714.777 166.94 714.777 166.94C714.777 166.94 714.777 166.94 714.777 166.94C714.777 166.941 714.777 166.941 714.777 166.941C714.777 166.941 714.777 166.941 714.777 166.941C714.777 166.942 714.777 166.942 714.777 166.942C714.777 166.942 714.777 166.942 714.777 166.942C714.777 166.943 714.777 166.943 714.777 166.943C714.777 166.943 714.777 166.943 714.777 166.943C714.777 166.944 714.777 166.944 714.777 166.944C714.777 166.944 714.777 166.944 714.777 166.944C714.777 166.945 714.777 166.945 714.777 166.945C714.777 166.945 714.777 166.945 714.777 166.945C714.777 166.946 714.777 166.946 714.777 166.946C714.777 166.946 714.777 166.946 714.777 166.946C714.777 166.947 714.777 166.947 714.777 166.947C714.777 166.947 714.777 166.947 714.777 166.947C714.777 166.948 714.777 166.948 714.777 166.948C714.777 166.948 714.777 166.948 714.777 166.948C714.777 166.949 714.777 166.949 714.777 166.949C714.777 166.949 714.777 166.949 714.777 166.949C714.777 166.95 714.777 166.95 714.777 166.95C714.777 166.95 714.777 166.95 714.777 166.95C714.777 166.951 714.777 166.951 714.777 166.951C714.777 166.951 714.777 166.951 714.777 166.951C714.777 166.952 714.777 166.952 714.777 166.952C714.777 166.952 714.777 166.952 714.777 166.952C714.777 166.953 714.777 166.953 714.777 166.953C714.777 166.953 714.777 166.953 714.777 166.953C714.777 166.954 714.777 166.954 714.777 166.954C714.777 166.954 714.777 166.954 714.777 166.954C714.777 166.955 714.777 166.955 714.777 166.955C714.777 166.955 714.777 166.955 714.777 166.955C714.777 166.956 714.777 166.956 714.777 166.956C714.777 166.956 714.777 166.956 714.777 166.956C714.777 166.957 714.777 166.957 714.777 166.957C714.777 166.957 714.777 166.957 714.777 166.957C714.777 166.958 714.777 166.958 714.777 166.958C714.777 166.958 714.777 166.958 714.777 166.958C714.777 166.959 714.777 166.959 714.777 166.959C714.777 166.959 714.777 166.959 714.777 166.959C714.777 166.96 714.777 166.96 714.777 166.96C714.777 166.96 714.777 166.96 714.777 166.96C714.777 166.961 714.777 166.961 714.777 166.961C714.777 166.961 714.777 166.961 714.777 166.961C714.777 166.962 714.777 166.962 714.777 166.962C714.777 166.962 714.777 166.962 714.777 166.962C714.777 166.963 714.777 166.963 714.777 166.963C714.777 166.963 714.777 166.963 714.777 166.963C714.777 166.964 714.777 166.964 714.777 166.964C714.777 166.964 714.777 166.964 714.777 166.964C714.777 166.965 714.777 166.965 714.777 166.965C714.777 166.965 714.777 166.965 714.777 166.965C714.777 166.966 714.777 166.966 714.777 166.966C714.777 166.966 714.777 166.966 714.777 166.966C714.777 166.967 714.777 166.967 714.777 166.967C714.777 166.967 714.777 166.967 714.777 166.967C714.777 166.968 714.777 166.968 714.777 166.968C714.777 166.968 714.777 166.968 714.777 166.968C714.777 166.969 714.777 166.969 714.777 166.969C714.777 166.969 714.777 166.969 714.777 166.969C714.777 166.97 714.777 166.97 714.777 166.97C714.777 166.97 714.777 166.97 714.777 166.97C714.777 166.971 714.777 166.971 714.777 166.971C714.777 166.971 714.777 166.971 714.777 166.971C714.777 166.972 714.777 166.972 714.777 166.972C714.777 166.972 714.777 166.972 714.777 166.972C714.777 166.973 714.777 166.973 714.777 166.973C714.777 166.973 714.777 166.973 714.777 166.973C714.777 166.974 714.777 166.974 714.777 166.974C714.777 166.974 714.777 166.974 714.777 166.974C714.777 166.975 714.777 166.975 714.777 166.975C714.777 166.975 714.777 166.975 714.777 166.975C714.777 166.976 714.777 166.976 714.777 166.976C714.777 166.976 714.777 166.976 714.777 166.976C714.777 166.977 714.777 166.977 714.777 166.977C714.777 166.977 714.777 166.977 714.777 166.977C714.777 166.978 714.777 166.978 714.777 166.978C714.777 166.978 714.777 166.978 714.777 166.978C714.777 166.979 714.777 166.979 714.777 166.979C714.777 166.979 714.777 166.979 714.777 166.979C714.777 166.98 714.777 166.98 714.777 166.98C714.777 166.98 714.777 166.98 714.777 166.98C714.777 166.981 714.777 166.981 714.777 166.981C714.777 166.981 714.777 166.981 714.777 166.981C714.777 166.982 714.777 166.982 714.777 166.982C714.777 166.982 714.777 166.982 714.777 166.982C714.777 166.983 714.777 166.983 714.777 166.983C714.777 166.983 714.777 166.983 714.777 166.983C714.777 166.984 714.777 166.984 714.777 166.984C714.777 166.984 714.777 166.984 714.777 166.984C714.777 166.985 714.777 166.985 714.777 166.985C714.777 166.985 714.777 166.985 714.777 166.985C714.777 166.986 714.777 166.986 714.777 166.986C714.777 166.986 714.777 166.986 714.777 166.986C714.777 166.987 714.777 166.987 714.777 166.987C714.777 166.987 714.777 166.987 714.777 166.987C714.777 166.988 714.777 166.988 714.777 166.988C714.777 166.988 714.777 166.988 714.777 166.988C714.777 166.989 714.777 166.989 714.777 166.989C714.777 166.989 714.777 166.989 714.777 166.989C714.777 166.99 714.777 166.99 714.777 166.99C714.777 166.99 714.777 166.99 714.777 166.99C714.777 166.991 714.777 166.991 714.777 166.991C714.777 166.991 714.777 166.991 714.777 166.991C714.777 166.992 714.777 166.992 714.777 166.992C714.777 166.992 714.777 166.992 714.777 166.992C714.777 166.993 714.777 166.993 714.777 166.993C714.777 166.993 714.777 166.993 714.777 166.993C714.777 166.994 714.777 166.994 714.777 166.994C714.777 166.994 714.777 166.994 714.777 166.994C714.777 166.995 714.777 166.995 714.777 166.995C714.777 166.995 714.777 166.995 714.777 166.995C714.777 166.996 714.777 166.996 714.777 166.996C714.777 166.996 714.777 166.996 714.777 166.996C714.777 166.997 714.777 166.997 714.777 166.997C714.777 166.997 714.777 166.997 714.777 166.997C714.777 166.998 714.777 166.998 714.777 166.998C714.777 166.998 714.777 166.998 714.777 166.998C714.777 166.999 714.777 166.999 714.777 166.999C714.777 166.999 714.777 166.999 714.777 166.999C714.777 167 714.777 167 714.777 167C714.777 167 714.777 167 714.777 167C714.777 167.001 714.777 167.001 714.777 167.001C714.777 167.001 714.777 167.001 714.777 167.001C714.777 167.002 714.777 167.002 714.777 167.002C714.777 167.002 714.777 167.002 714.777 167.002C714.777 167.003 714.777 167.003 714.777 167.003C714.777 167.003 714.777 167.003 714.777 167.003C714.777 167.004 714.777 167.004 714.777 167.004C714.777 167.004 714.777 167.004 714.777 167.004C714.777 167.005 714.777 167.005 714.777 167.005C714.777 167.005 714.777 167.005 714.777 167.005C714.777 167.006 714.777 167.006 714.777 167.006C714.777 167.006 714.777 167.006 714.777 167.006C714.777 167.007 714.777 167.007 714.777 167.007C714.777 167.007 714.777 167.007 714.777 167.007C714.777 167.008 714.777 167.008 714.777 167.008C714.777 167.008 714.777 167.008 714.777 167.008C714.777 167.009 714.777 167.009 714.777 167.009C714.777 167.009 714.777 167.009 714.777 167.009C714.777 167.01 714.777 167.01 714.777 167.01C714.777 167.01 714.777 167.01 714.777 167.01C714.777 167.011 714.777 167.011 714.777 167.011C714.777 167.011 714.777 167.011 714.777 167.011C714.777 167.012 714.777 167.012 714.777 167.012C714.777 167.012 714.777 167.012 714.777 167.012C714.777 167.013 714.777 167.013 714.777 167.013C714.777 167.013 714.777 167.013 714.777 167.013C714.777 167.014 714.777 167.014 714.777 167.014C714.777 167.014 714.777 167.014 714.777 167.014C714.777 167.015 714.777 167.015 714.777 167.015C714.777 167.015 714.777 167.015 714.777 167.015C714.777 167.016 714.777 167.016 714.777 167.016C714.777 167.016 714.777 167.016 714.777 167.016C714.777 167.017 714.777 167.017 714.777 167.017C714.777 167.017 714.777 167.017 714.777 167.017C714.777 167.018 714.777 167.018 714.777 167.018C714.777 167.018 714.777 167.018 714.777 167.018C714.777 167.019 714.777 167.019 714.777 167.019C714.777 167.019 714.777 167.019 714.777 167.019C714.777 167.02 714.777 167.02 714.777 167.02C714.777 167.02 714.777 167.02 714.777 167.02C714.777 167.021 714.777 167.021 714.777 167.021C714.777 167.021 714.777 167.021 714.777 167.021C714.777 167.022 714.777 167.022 714.777 167.022C714.777 167.022 714.777 167.022 714.777 167.022C714.777 167.023 714.777 167.023 714.777 167.023C714.777 167.023 714.777 167.023 714.777 167.023C714.777 167.024 714.777 167.024 714.777 167.024H716.777C716.777 167.024 716.777 167.024 716.777 167.023C716.777 167.023 716.777 167.023 716.777 167.023C716.777 167.023 716.777 167.023 716.777 167.022C716.777 167.022 716.777 167.022 716.777 167.022C716.777 167.022 716.777 167.022 716.777 167.021C716.777 167.021 716.777 167.021 716.777 167.021C716.777 167.021 716.777 167.021 716.777 167.02C716.777 167.02 716.777 167.02 716.777 167.02C716.777 167.02 716.777 167.02 716.777 167.019C716.777 167.019 716.777 167.019 716.777 167.019C716.777 167.019 716.777 167.019 716.777 167.018C716.777 167.018 716.777 167.018 716.777 167.018C716.777 167.018 716.777 167.018 716.777 167.017C716.777 167.017 716.777 167.017 716.777 167.017C716.777 167.017 716.777 167.017 716.777 167.016C716.777 167.016 716.777 167.016 716.777 167.016C716.777 167.016 716.777 167.016 716.777 167.015C716.777 167.015 716.777 167.015 716.777 167.015C716.777 167.015 716.777 167.015 716.777 167.014C716.777 167.014 716.777 167.014 716.777 167.014C716.777 167.014 716.777 167.014 716.777 167.013C716.777 167.013 716.777 167.013 716.777 167.013C716.777 167.013 716.777 167.013 716.777 167.012C716.777 167.012 716.777 167.012 716.777 167.012C716.777 167.012 716.777 167.012 716.777 167.011C716.777 167.011 716.777 167.011 716.777 167.011C716.777 167.011 716.777 167.011 716.777 167.01C716.777 167.01 716.777 167.01 716.777 167.01C716.777 167.01 716.777 167.01 716.777 167.009C716.777 167.009 716.777 167.009 716.777 167.009C716.777 167.009 716.777 167.009 716.777 167.008C716.777 167.008 716.777 167.008 716.777 167.008C716.777 167.008 716.777 167.008 716.777 167.007C716.777 167.007 716.777 167.007 716.777 167.007C716.777 167.007 716.777 167.007 716.777 167.006C716.777 167.006 716.777 167.006 716.777 167.006C716.777 167.006 716.777 167.006 716.777 167.005C716.777 167.005 716.777 167.005 716.777 167.005C716.777 167.005 716.777 167.005 716.777 167.004C716.777 167.004 716.777 167.004 716.777 167.004C716.777 167.004 716.777 167.004 716.777 167.003C716.777 167.003 716.777 167.003 716.777 167.003C716.777 167.003 716.777 167.003 716.777 167.002C716.777 167.002 716.777 167.002 716.777 167.002C716.777 167.002 716.777 167.002 716.777 167.001C716.777 167.001 716.777 167.001 716.777 167.001C716.777 167.001 716.777 167.001 716.777 167C716.777 167 716.777 167 716.777 167C716.777 167 716.777 167 716.777 166.999C716.777 166.999 716.777 166.999 716.777 166.999C716.777 166.999 716.777 166.999 716.777 166.998C716.777 166.998 716.777 166.998 716.777 166.998C716.777 166.998 716.777 166.998 716.777 166.997C716.777 166.997 716.777 166.997 716.777 166.997C716.777 166.997 716.777 166.997 716.777 166.996C716.777 166.996 716.777 166.996 716.777 166.996C716.777 166.996 716.777 166.996 716.777 166.995C716.777 166.995 716.777 166.995 716.777 166.995C716.777 166.995 716.777 166.995 716.777 166.994C716.777 166.994 716.777 166.994 716.777 166.994C716.777 166.994 716.777 166.994 716.777 166.993C716.777 166.993 716.777 166.993 716.777 166.993C716.777 166.993 716.777 166.993 716.777 166.992C716.777 166.992 716.777 166.992 716.777 166.992C716.777 166.992 716.777 166.992 716.777 166.991C716.777 166.991 716.777 166.991 716.777 166.991C716.777 166.991 716.777 166.991 716.777 166.99C716.777 166.99 716.777 166.99 716.777 166.99C716.777 166.99 716.777 166.99 716.777 166.989C716.777 166.989 716.777 166.989 716.777 166.989C716.777 166.989 716.777 166.989 716.777 166.988C716.777 166.988 716.777 166.988 716.777 166.988C716.777 166.988 716.777 166.988 716.777 166.987C716.777 166.987 716.777 166.987 716.777 166.987C716.777 166.987 716.777 166.987 716.777 166.986C716.777 166.986 716.777 166.986 716.777 166.986C716.777 166.986 716.777 166.986 716.777 166.985C716.777 166.985 716.777 166.985 716.777 166.985C716.777 166.985 716.777 166.985 716.777 166.984C716.777 166.984 716.777 166.984 716.777 166.984C716.777 166.984 716.777 166.984 716.777 166.983C716.777 166.983 716.777 166.983 716.777 166.983C716.777 166.983 716.777 166.983 716.777 166.982C716.777 166.982 716.777 166.982 716.777 166.982C716.777 166.982 716.777 166.982 716.777 166.981C716.777 166.981 716.777 166.981 716.777 166.981C716.777 166.981 716.777 166.981 716.777 166.98C716.777 166.98 716.777 166.98 716.777 166.98C716.777 166.98 716.777 166.98 716.777 166.979C716.777 166.979 716.777 166.979 716.777 166.979C716.777 166.979 716.777 166.979 716.777 166.978C716.777 166.978 716.777 166.978 716.777 166.978C716.777 166.978 716.777 166.978 716.777 166.977C716.777 166.977 716.777 166.977 716.777 166.977C716.777 166.977 716.777 166.977 716.777 166.976C716.777 166.976 716.777 166.976 716.777 166.976C716.777 166.976 716.777 166.976 716.777 166.975C716.777 166.975 716.777 166.975 716.777 166.975C716.777 166.975 716.777 166.975 716.777 166.974C716.777 166.974 716.777 166.974 716.777 166.974C716.777 166.974 716.777 166.974 716.777 166.973C716.777 166.973 716.777 166.973 716.777 166.973C716.777 166.973 716.777 166.973 716.777 166.972C716.777 166.972 716.777 166.972 716.777 166.972C716.777 166.972 716.777 166.972 716.777 166.971C716.777 166.971 716.777 166.971 716.777 166.971C716.777 166.971 716.777 166.971 716.777 166.97C716.777 166.97 716.777 166.97 716.777 166.97C716.777 166.97 716.777 166.97 716.777 166.969C716.777 166.969 716.777 166.969 716.777 166.969C716.777 166.969 716.777 166.969 716.777 166.968C716.777 166.968 716.777 166.968 716.777 166.968C716.777 166.968 716.777 166.968 716.777 166.967C716.777 166.967 716.777 166.967 716.777 166.967C716.777 166.967 716.777 166.967 716.777 166.966C716.777 166.966 716.777 166.966 716.777 166.966C716.777 166.966 716.777 166.966 716.777 166.965C716.777 166.965 716.777 166.965 716.777 166.965C716.777 166.965 716.777 166.965 716.777 166.964C716.777 166.964 716.777 166.964 716.777 166.964C716.777 166.964 716.777 166.964 716.777 166.963C716.777 166.963 716.777 166.963 716.777 166.963C716.777 166.963 716.777 166.963 716.777 166.962C716.777 166.962 716.777 166.962 716.777 166.962C716.777 166.962 716.777 166.962 716.777 166.961C716.777 166.961 716.777 166.961 716.777 166.961C716.777 166.961 716.777 166.961 716.777 166.96C716.777 166.96 716.777 166.96 716.777 166.96C716.777 166.96 716.777 166.96 716.777 166.959C716.777 166.959 716.777 166.959 716.777 166.959C716.777 166.959 716.777 166.959 716.777 166.958C716.777 166.958 716.777 166.958 716.777 166.958C716.777 166.958 716.777 166.958 716.777 166.957C716.777 166.957 716.777 166.957 716.777 166.957C716.777 166.957 716.777 166.957 716.777 166.956C716.777 166.956 716.777 166.956 716.777 166.956C716.777 166.956 716.777 166.956 716.777 166.955C716.777 166.955 716.777 166.955 716.777 166.955C716.777 166.955 716.777 166.955 716.777 166.954C716.777 166.954 716.777 166.954 716.777 166.954C716.777 166.954 716.777 166.954 716.777 166.953C716.777 166.953 716.777 166.953 716.777 166.953C716.777 166.953 716.777 166.953 716.777 166.952C716.777 166.952 716.777 166.952 716.777 166.952C716.777 166.952 716.777 166.952 716.777 166.951C716.777 166.951 716.777 166.951 716.777 166.951C716.777 166.951 716.777 166.951 716.777 166.95C716.777 166.95 716.777 166.95 716.777 166.95C716.777 166.95 716.777 166.95 716.777 166.949C716.777 166.949 716.777 166.949 716.777 166.949C716.777 166.949 716.777 166.949 716.777 166.948C716.777 166.948 716.777 166.948 716.777 166.948C716.777 166.948 716.777 166.948 716.777 166.947C716.777 166.947 716.777 166.947 716.777 166.947C716.777 166.947 716.777 166.947 716.777 166.946C716.777 166.946 716.777 166.946 716.777 166.946C716.777 166.946 716.777 166.946 716.777 166.945C716.777 166.945 716.777 166.945 716.777 166.945C716.777 166.945 716.777 166.945 716.777 166.944C716.777 166.944 716.777 166.944 716.777 166.944C716.777 166.944 716.777 166.944 716.777 166.943C716.777 166.943 716.777 166.943 716.777 166.943C716.777 166.943 716.777 166.943 716.777 166.942C716.777 166.942 716.777 166.942 716.777 166.942C716.777 166.942 716.777 166.942 716.777 166.941C716.777 166.941 716.777 166.941 716.777 166.941C716.777 166.941 716.777 166.941 716.777 166.94C716.777 166.94 716.777 166.94 716.777 166.94C716.777 166.94 716.777 166.94 716.777 166.939C716.777 166.939 716.777 166.939 716.777 166.939C716.777 166.939 716.777 166.939 716.777 166.938C716.777 166.938 716.777 166.938 716.777 166.938C716.777 166.938 716.777 166.938 716.777 166.937C716.777 166.937 716.777 166.937 716.777 166.937C716.777 166.937 716.777 166.937 716.777 166.936C716.777 166.936 716.777 166.936 716.777 166.936C716.777 166.936 716.777 166.936 716.777 166.935C716.777 166.935 716.777 166.935 716.777 166.935C716.777 166.935 716.777 166.935 716.777 166.934C716.777 166.934 716.777 166.934 716.777 166.934C716.777 166.934 716.777 166.934 716.777 166.933C716.777 166.933 716.777 166.933 716.777 166.933C716.777 166.933 716.777 166.933 716.777 166.932C716.777 166.932 716.777 166.932 716.777 166.932C716.777 166.932 716.777 166.932 716.777 166.931C716.777 166.931 716.777 166.931 716.777 166.931C716.777 166.931 716.777 166.931 716.777 166.93C716.777 166.93 716.777 166.93 716.777 166.93C716.777 166.93 716.777 166.93 716.777 166.929C716.777 166.929 716.777 166.929 716.777 166.929C716.777 166.929 716.777 166.929 716.777 166.928C716.777 166.928 716.777 166.928 716.777 166.928C716.777 166.928 716.777 166.928 716.777 166.927C716.777 166.927 716.777 166.927 716.777 166.927C716.777 166.927 716.777 166.927 716.777 166.926C716.777 166.926 716.777 166.926 716.777 166.926C716.777 166.926 716.777 166.926 716.777 166.925C716.777 166.925 716.777 166.925 716.777 166.925C716.777 166.925 716.777 166.925 716.777 166.924C716.777 166.924 716.777 166.924 716.777 166.924C716.777 166.924 716.777 166.924 716.777 166.923C716.777 166.923 716.777 166.923 716.777 166.923C716.777 166.923 716.777 166.923 716.777 166.922C716.777 166.922 716.777 166.922 716.777 166.922C716.777 166.922 716.777 166.922 716.777 166.921C716.777 166.921 716.777 166.921 716.777 166.921C716.777 166.921 716.777 166.921 716.777 166.92C716.777 166.92 716.777 166.92 716.777 166.92C716.777 166.92 716.777 166.92 716.777 166.919C716.777 166.919 716.777 166.919 716.777 166.919C716.777 166.919 716.777 166.919 716.777 166.918C716.777 166.918 716.777 166.918 716.777 166.918C716.777 166.918 716.777 166.918 716.777 166.917C716.777 166.917 716.777 166.917 716.777 166.917C716.777 166.917 716.777 166.917 716.777 166.916C716.777 166.916 716.777 166.916 716.777 166.916C716.777 166.916 716.777 166.916 716.777 166.915C716.777 166.915 716.777 166.915 716.777 166.915C716.777 166.915 716.777 166.915 716.777 166.914C716.777 166.914 716.777 166.914 716.777 166.914C716.777 166.914 716.777 166.914 716.777 166.913C716.777 166.913 716.777 166.913 716.777 166.913C716.777 166.913 716.777 166.913 716.777 166.912C716.777 166.912 716.777 166.912 716.777 166.912C716.777 166.912 716.777 166.912 716.777 166.911C716.777 166.911 716.777 166.911 716.777 166.911C716.777 166.911 716.777 166.911 716.777 166.91C716.777 166.91 716.777 166.91 716.777 166.91C716.777 166.91 716.777 166.91 716.777 166.909C716.777 166.909 716.777 166.909 716.777 166.909C716.777 166.909 716.777 166.909 716.777 166.908C716.777 166.908 716.777 166.908 716.777 166.908C716.777 166.908 716.777 166.908 716.777 166.907C716.777 166.907 716.777 166.907 716.777 166.907C716.777 166.907 716.777 166.907 716.777 166.906C716.777 166.906 716.777 166.906 716.777 166.906C716.777 166.906 716.777 166.906 716.777 166.905C716.777 166.905 716.777 166.905 716.777 166.905C716.777 166.905 716.777 166.905 716.777 166.904C716.777 166.904 716.777 166.904 716.777 166.904C716.777 166.904 716.777 166.904 716.777 166.903C716.777 166.903 716.777 166.903 716.777 166.903C716.777 166.903 716.777 166.903 716.777 166.902C716.777 166.902 716.777 166.902 716.777 166.902C716.777 166.902 716.777 166.902 716.777 166.901C716.777 166.901 716.777 166.901 716.777 166.901C716.777 166.901 716.777 166.901 716.777 166.9C716.777 166.9 716.777 166.9 716.777 166.9C716.777 166.9 716.777 166.9 716.777 166.899C716.777 166.899 716.777 166.899 716.777 166.899C716.777 166.899 716.777 166.899 716.777 166.898C716.777 166.898 716.777 166.898 716.777 166.898C716.777 166.898 716.777 166.898 716.777 166.897C716.777 166.897 716.777 166.897 716.777 166.897C716.777 166.897 716.777 166.897 716.777 166.896C716.777 166.896 716.777 166.896 716.777 166.896C716.777 166.896 716.777 166.896 716.777 166.895C716.777 166.895 716.777 166.895 716.777 166.895C716.777 166.895 716.777 166.895 716.777 166.894C716.777 166.894 716.777 166.894 716.777 166.894C716.777 166.894 716.777 166.894 716.777 166.893C716.777 166.893 716.777 166.893 716.777 166.893C716.777 166.893 716.777 166.893 716.777 166.892C716.777 166.892 716.777 166.892 716.777 166.892C716.777 166.892 716.777 166.892 716.777 166.891C716.777 166.891 716.777 166.891 716.777 166.891C716.777 166.891 716.777 166.891 716.777 166.89C716.777 166.89 716.777 166.89 716.777 166.89C716.777 166.89 716.777 166.89 716.777 166.889C716.777 166.889 716.777 166.889 716.777 166.889C716.777 166.889 716.777 166.889 716.777 166.888C716.777 166.888 716.777 166.888 716.777 166.888C716.777 166.888 716.777 166.888 716.777 166.887C716.777 166.887 716.777 166.887 716.777 166.887C716.777 166.887 716.777 166.887 716.777 166.886C716.777 166.886 716.777 166.886 716.777 166.886C716.777 166.886 716.777 166.886 716.777 166.885C716.777 166.885 716.777 166.885 716.777 166.885C716.777 166.885 716.777 166.885 716.777 166.884C716.777 166.884 716.777 166.884 716.777 166.884C716.777 166.884 716.777 166.884 716.777 166.883C716.777 166.883 716.777 166.883 716.777 166.883C716.777 166.883 716.777 166.883 716.777 166.882C716.777 166.882 716.777 166.882 716.777 166.882C716.777 166.882 716.777 166.882 716.777 166.881C716.777 166.881 716.777 166.881 716.777 166.881C716.777 166.881 716.777 166.881 716.777 166.88C716.777 166.88 716.777 166.88 716.777 166.88C716.777 166.88 716.777 166.88 716.777 166.879C716.777 166.879 716.777 166.879 716.777 166.879C716.777 166.879 716.777 166.879 716.777 166.878C716.777 166.878 716.777 166.878 716.777 166.878C716.777 166.878 716.777 166.878 716.777 166.877C716.777 166.877 716.777 166.877 716.777 166.877C716.777 166.877 716.777 166.877 716.777 166.876C716.777 166.876 716.777 166.876 716.777 166.876C716.777 166.876 716.777 166.876 716.777 166.875C716.777 166.875 716.777 166.875 716.777 166.875C716.777 166.875 716.777 166.875 716.777 166.874C716.777 166.874 716.777 166.874 716.777 166.874C716.777 166.874 716.777 166.874 716.777 166.873C716.777 166.873 716.777 166.873 716.777 166.873C716.777 166.873 716.777 166.873 716.777 166.872C716.777 166.872 716.777 166.872 716.777 166.872C716.777 166.872 716.777 166.872 716.777 166.871C716.777 166.871 716.777 166.871 716.777 166.871C716.777 166.871 716.777 166.871 716.777 166.87C716.777 166.87 716.777 166.87 716.777 166.87C716.777 166.87 716.777 166.87 716.777 166.869C716.777 166.869 716.777 166.869 716.777 166.869C716.777 166.869 716.777 166.869 716.777 166.868C716.777 166.868 716.777 166.868 716.777 166.868C716.777 166.868 716.777 166.868 716.777 166.867C716.777 166.867 716.777 166.867 716.777 166.867C716.777 166.867 716.777 166.867 716.777 166.866C716.777 166.866 716.777 166.866 716.777 166.866C716.777 166.866 716.777 166.866 716.777 166.865C716.777 166.865 716.777 166.865 716.777 166.865C716.777 166.865 716.777 166.865 716.777 166.864C716.777 166.864 716.777 166.864 716.777 166.864C716.777 166.864 716.777 166.864 716.777 166.863C716.777 166.863 716.777 166.863 716.777 166.863C716.777 166.863 716.777 166.863 716.777 166.862C716.777 166.862 716.777 166.862 716.777 166.862C716.777 166.862 716.777 166.862 716.777 166.861C716.777 166.861 716.777 166.861 716.777 166.861C716.777 166.861 716.777 166.861 716.777 166.86C716.777 166.86 716.777 166.86 716.777 166.86C716.777 166.86 716.777 166.86 716.777 166.859C716.777 166.859 716.777 166.859 716.777 166.859C716.777 166.859 716.777 166.859 716.777 166.858C716.777 166.858 716.777 166.858 716.777 166.858C716.777 166.858 716.777 166.858 716.777 166.857C716.777 166.857 716.777 166.857 716.777 166.857C716.777 166.857 716.777 166.857 716.777 166.856C716.777 166.856 716.777 166.856 716.777 166.856C716.777 166.856 716.777 166.856 716.777 166.855C716.777 166.855 716.777 166.855 716.777 166.855C716.777 166.855 716.777 166.855 716.777 166.854C716.777 166.854 716.777 166.854 716.777 166.854C716.777 166.854 716.777 166.854 716.777 166.853C716.777 166.853 716.777 166.853 716.777 166.853C716.777 166.853 716.777 166.853 716.777 166.852C716.777 166.852 716.777 166.852 716.777 166.852C716.777 166.852 716.777 166.852 716.777 166.851C716.777 166.851 716.777 166.851 716.777 166.851C716.777 166.851 716.777 166.851 716.777 166.85C716.777 166.85 716.777 166.85 716.777 166.85C716.777 166.85 716.777 166.85 716.777 166.849C716.777 166.849 716.777 166.849 716.777 166.849C716.777 166.849 716.777 166.849 716.777 166.848C716.777 166.848 716.777 166.848 716.777 166.848C716.777 166.848 716.777 166.848 716.777 166.847C716.777 166.847 716.777 166.847 716.777 166.847C716.777 166.847 716.777 166.847 716.777 166.846C716.777 166.846 716.777 166.846 716.777 166.846C716.777 166.846 716.777 166.846 716.777 166.845C716.777 166.845 716.777 166.845 716.777 166.845C716.777 166.845 716.777 166.845 716.777 166.844C716.777 166.844 716.777 166.844 716.777 166.844C716.777 166.844 716.777 166.844 716.777 166.843C716.777 166.843 716.777 166.843 716.777 166.843C716.777 166.843 716.777 166.843 716.777 166.842C716.777 166.842 716.777 166.842 716.777 166.842C716.777 166.842 716.777 166.842 716.777 166.841C716.777 166.841 716.777 166.841 716.777 166.841C716.777 166.841 716.777 166.841 716.777 166.84C716.777 166.84 716.777 166.84 716.777 166.84C716.777 166.84 716.777 166.84 716.777 166.839C716.777 166.839 716.777 166.839 716.777 166.839C716.777 166.839 716.777 166.839 716.777 166.838C716.777 166.838 716.777 166.838 716.777 166.838C716.777 166.838 716.777 166.838 716.777 166.837C716.777 166.837 716.777 166.837 716.777 166.837C716.777 166.837 716.777 166.837 716.777 166.836C716.777 166.836 716.777 166.836 716.777 166.836C716.777 166.836 716.777 166.836 716.777 166.835C716.777 166.835 716.777 166.835 716.777 166.835C716.777 166.835 716.777 166.835 716.777 166.834C716.777 166.834 716.777 166.834 716.777 166.834C716.777 166.834 716.777 166.834 716.777 166.833C716.777 166.833 716.777 166.833 716.777 166.833C716.777 166.833 716.777 166.833 716.777 166.832C716.777 166.832 716.777 166.832 716.777 166.832C716.777 166.832 716.777 166.832 716.777 166.831C716.777 166.831 716.777 166.831 716.777 166.831C716.777 166.831 716.777 166.831 716.777 166.83C716.777 166.83 716.777 166.83 716.777 166.83C716.777 166.83 716.777 166.83 716.777 166.829C716.777 166.829 716.777 166.829 716.777 166.829C716.777 166.829 716.777 166.829 716.777 166.828C716.777 166.828 716.777 166.828 716.777 166.828C716.777 166.828 716.777 166.828 716.777 166.827C716.777 166.827 716.777 166.827 716.777 166.827C716.777 166.827 716.777 166.827 716.777 166.826C716.777 166.826 716.777 166.826 716.777 166.826C716.777 166.826 716.777 166.826 716.777 166.825C716.777 166.825 716.777 166.825 716.777 166.825C716.777 166.825 716.777 166.825 716.777 166.824C716.777 166.824 716.777 166.824 716.777 166.824C716.777 166.824 716.777 166.824 716.777 166.823C716.777 166.823 716.777 166.823 716.777 166.823C716.777 166.823 716.777 166.823 716.777 166.822C716.777 166.822 716.777 166.822 716.777 166.822C716.777 166.822 716.777 166.822 716.777 166.821C716.777 166.821 716.777 166.821 716.777 166.821C716.777 166.821 716.777 166.821 716.777 166.82C716.777 166.82 716.777 166.82 716.777 166.82C716.777 166.82 716.777 166.82 716.777 166.819C716.777 166.819 716.777 166.819 716.777 166.819C716.777 166.819 716.777 166.819 716.777 166.818C716.777 166.818 716.777 166.818 716.777 166.818C716.777 166.818 716.777 166.818 716.777 166.817C716.777 166.817 716.777 166.817 716.777 166.817C716.777 166.817 716.777 166.817 716.777 166.816C716.777 166.816 716.777 166.816 716.777 166.816C716.777 166.816 716.777 166.816 716.777 166.815C716.777 166.815 716.777 166.815 716.777 166.815C716.777 166.815 716.777 166.815 716.777 166.814C716.777 166.814 716.777 166.814 716.777 166.814C716.777 166.814 716.777 166.814 716.777 166.813C716.777 166.813 716.777 166.813 716.777 166.813C716.777 166.813 716.777 166.813 716.777 166.812C716.777 166.812 716.777 166.812 716.777 166.812C716.777 166.812 716.777 166.812 716.777 166.811C716.777 166.811 716.777 166.811 716.777 166.811C716.777 166.811 716.777 166.811 716.777 166.81C716.777 166.81 716.777 166.81 716.777 166.81C716.777 166.81 716.777 166.81 716.777 166.809C716.777 166.809 716.777 166.809 716.777 166.809C716.777 166.809 716.777 166.809 716.777 166.808C716.777 166.808 716.777 166.808 716.777 166.808C716.777 166.808 716.777 166.808 716.777 166.807C716.777 166.807 716.777 166.807 716.777 166.807C716.777 166.807 716.777 166.807 716.777 166.806C716.777 166.806 716.777 166.806 716.777 166.806C716.777 166.806 716.777 166.806 716.777 166.805C716.777 166.805 716.777 166.805 716.777 166.805C716.777 166.805 716.777 166.805 716.777 166.804C716.777 166.804 716.777 166.804 716.777 166.804C716.777 166.804 716.777 166.804 716.777 166.803C716.777 166.803 716.777 166.803 716.777 166.803C716.777 166.803 716.777 166.803 716.777 166.802C716.777 166.802 716.777 166.802 716.777 166.802C716.777 166.802 716.777 166.802 716.777 166.801C716.777 166.801 716.777 166.801 716.777 166.801C716.777 166.801 716.777 166.801 716.777 166.8C716.777 166.8 716.777 166.8 716.777 166.8C716.777 166.8 716.777 166.8 716.777 166.799C716.777 166.799 716.777 166.799 716.777 166.799C716.777 166.799 716.777 166.799 716.777 166.798C716.777 166.798 716.777 166.798 716.777 166.798C716.777 166.798 716.777 166.798 716.777 166.797C716.777 166.797 716.777 166.797 716.777 166.797C716.777 166.797 716.777 166.797 716.777 166.796C716.777 166.796 716.777 166.796 716.777 166.796C716.777 166.796 716.777 166.796 716.777 166.795C716.777 166.795 716.777 166.795 716.777 166.795C716.777 166.795 716.777 166.795 716.777 166.794C716.777 166.794 716.777 166.794 716.777 166.794C716.777 166.794 716.777 166.794 716.777 166.793C716.777 166.793 716.777 166.793 716.777 166.793C716.777 166.793 716.777 166.793 716.777 166.792C716.777 166.792 716.777 166.792 716.777 166.792C716.777 166.792 716.777 166.792 716.777 166.791C716.777 166.791 716.777 166.791 716.777 166.791C716.777 166.791 716.777 166.791 716.777 166.79C716.777 166.79 716.777 166.79 716.777 166.79C716.777 166.79 716.777 166.79 716.777 166.789C716.777 166.789 716.777 166.789 716.777 166.789C716.777 166.789 716.777 166.789 716.777 166.788C716.777 166.788 716.777 166.788 716.777 166.788C716.777 166.788 716.777 166.788 716.777 166.787C716.777 166.787 716.777 166.787 716.777 166.787C716.777 166.787 716.777 166.787 716.777 166.786C716.777 166.786 716.777 166.786 716.777 166.786C716.777 166.786 716.777 166.786 716.777 166.785C716.777 166.785 716.777 166.785 716.777 166.785C716.777 166.785 716.777 166.785 716.777 166.784C716.777 166.784 716.777 166.784 716.777 166.784C716.777 166.784 716.777 166.784 716.777 166.783C716.777 166.783 716.777 166.783 716.777 166.783C716.777 166.783 716.777 166.783 716.777 166.782C716.777 166.782 716.777 166.782 716.777 166.782C716.777 166.782 716.777 166.782 716.777 166.781C716.777 166.781 716.777 166.781 716.777 166.781C716.777 166.781 716.777 166.781 716.777 166.78C716.777 166.78 716.777 166.78 716.777 166.78C716.777 166.78 716.777 166.78 716.777 166.779C716.777 166.779 716.777 166.779 716.777 166.779C716.777 166.779 716.777 166.779 716.777 166.778C716.777 166.778 716.777 166.778 716.777 166.778C716.777 166.778 716.777 166.778 716.777 166.777C716.777 166.777 716.777 166.777 716.777 166.777C716.777 166.777 716.777 166.777 716.777 166.776C716.777 166.776 716.777 166.776 716.777 166.776C716.777 166.776 716.777 166.776 716.777 166.775C716.777 166.775 716.777 166.775 716.777 166.775C716.777 166.775 716.777 166.775 716.777 166.774C716.777 166.774 716.777 166.774 716.777 166.774C716.777 166.774 716.777 166.774 716.777 166.773C716.777 166.773 716.777 166.773 716.777 166.773C716.777 166.773 716.777 166.773 716.777 166.772C716.777 166.772 716.777 166.772 716.777 166.772C716.777 166.772 716.777 166.772 716.777 166.771C716.777 166.771 716.777 166.771 716.777 166.771C716.777 166.771 716.777 166.771 716.777 166.77C716.777 166.77 716.777 166.77 716.777 166.77C716.777 166.77 716.777 166.77 716.777 166.769C716.777 166.769 716.777 166.769 716.777 166.769C716.777 166.769 716.777 166.769 716.777 166.768C716.777 166.768 716.777 166.768 716.777 166.768H714.777ZM714.777 167.024V234.48H716.777V167.024H714.777ZM715.777 233.48H714.497V235.48H715.777V233.48ZM715.497 234.48V166.768H713.497V234.48H715.497ZM715.497 166.768C715.497 166.5 715.571 166.444 715.609 166.416L714.409 164.816C713.764 165.3 713.497 166.012 713.497 166.768H715.497ZM715.609 166.416C715.821 166.257 715.957 166.232 716.033 166.232V164.232C715.426 164.232 714.88 164.463 714.409 164.816L715.609 166.416ZM716.033 166.232C716.199 166.232 716.3 166.271 716.374 166.32L717.484 164.656C717.046 164.364 716.549 164.232 716.033 164.232V166.232ZM716.374 166.32C716.546 166.434 716.83 166.676 717.246 167.091L718.66 165.677C718.222 165.239 717.824 164.883 717.484 164.656L716.374 166.32ZM849.272 165.36H850.272V164.36H849.272V165.36ZM849.272 166.64V167.64H850.272V166.64H849.272ZM810.872 193.776L811.579 193.069L811.579 193.069L810.872 193.776ZM815.608 196.08L815.808 195.1L815.794 195.097L815.779 195.095L815.608 196.08ZM842.616 201.584L842.416 202.564L842.42 202.565L842.616 201.584ZM848.888 204.912L848.163 205.601L848.172 205.61L848.181 205.619L848.888 204.912ZM847.608 230.896L848.29 231.627L848.297 231.621L848.303 231.615L847.608 230.896ZM805.368 234.48H804.368V235.48H805.368V234.48ZM805.368 233.2V232.2H804.368V233.2H805.368ZM846.584 230L847.263 230.734L847.264 230.733L846.584 230ZM847.992 205.936L847.245 206.6L847.264 206.622L847.285 206.643L847.992 205.936ZM842.36 202.864L842.57 201.886L842.56 201.884L842.36 202.864ZM815.352 197.36L815.552 196.38L815.541 196.378L815.352 197.36ZM809.848 194.8L809.141 195.507L809.163 195.529L809.186 195.55L809.848 194.8ZM811.384 168.688L812.05 169.434L812.057 169.427L812.064 169.421L811.384 168.688ZM848.272 165.36V166.64H850.272V165.36H848.272ZM849.272 165.64H820.856V167.64H849.272V165.64ZM820.856 165.64C817.083 165.64 813.962 166.678 811.603 168.848L812.957 170.32C814.865 168.565 817.461 167.64 820.856 167.64V165.64ZM811.603 168.848C809.257 171.007 808.08 173.751 808.08 177.008H810.08C810.08 174.291 811.037 172.087 812.957 170.32L811.603 168.848ZM808.08 177.008V187.504H810.08V177.008H808.08ZM808.08 187.504C808.08 190.568 808.682 193.001 810.165 194.483L811.579 193.069C810.672 192.162 810.08 190.413 810.08 187.504H808.08ZM810.165 194.483C811.53 195.848 813.308 196.695 815.437 197.065L815.779 195.095C813.982 194.782 812.603 194.093 811.579 193.069L810.165 194.483ZM815.408 197.06L842.416 202.564L842.816 200.604L815.808 195.1L815.408 197.06ZM842.42 202.565C844.801 203.041 846.699 204.06 848.163 205.601L849.613 204.223C847.834 202.351 845.551 201.151 842.812 200.603L842.42 202.565ZM848.181 205.619C849.594 207.033 850.448 209.755 850.448 214.128H852.448C852.448 209.627 851.595 206.205 849.595 204.205L848.181 205.619ZM850.448 214.128V221.552H852.448V214.128H850.448ZM850.448 221.552C850.448 225.052 849.267 227.902 846.913 230.177L848.303 231.615C851.07 228.941 852.448 225.561 852.448 221.552H850.448ZM846.926 230.165C844.593 232.342 841.403 233.48 837.24 233.48V235.48C841.781 235.48 845.503 234.229 848.29 231.627L846.926 230.165ZM837.24 233.48H805.368V235.48H837.24V233.48ZM806.368 234.48V233.2H804.368V234.48H806.368ZM805.368 234.2H837.24V232.2H805.368V234.2ZM837.24 234.2C841.351 234.2 844.731 233.078 847.263 230.734L845.905 229.266C843.829 231.188 840.979 232.2 837.24 232.2V234.2ZM847.264 230.733C849.868 228.315 851.168 225.229 851.168 221.552H849.168C849.168 224.702 848.079 227.248 845.904 229.267L847.264 230.733ZM851.168 221.552V214.128H849.168V221.552H851.168ZM851.168 214.128C851.168 210.074 850.451 206.981 848.699 205.229L847.285 206.643C848.434 207.793 849.168 210.16 849.168 214.128H851.168ZM848.739 205.272C847.207 203.548 845.126 202.434 842.57 201.886L842.15 203.842C844.372 204.318 846.046 205.252 847.245 206.6L848.739 205.272ZM842.56 201.884L815.552 196.38L815.152 198.34L842.16 203.844L842.56 201.884ZM815.541 196.378C813.468 195.979 811.805 195.193 810.51 194.05L809.186 195.55C810.792 196.967 812.799 197.887 815.163 198.342L815.541 196.378ZM810.555 194.093C809.481 193.019 808.8 190.933 808.8 187.504H806.8C806.8 191.072 807.484 193.85 809.141 195.507L810.555 194.093ZM808.8 187.504V177.008H806.8V187.504H808.8ZM808.8 177.008C808.8 173.858 809.888 171.364 812.05 169.434L810.718 167.942C808.101 170.279 806.8 173.331 806.8 177.008H808.8ZM812.064 169.421C814.232 167.408 817.129 166.36 820.856 166.36V164.36C816.733 164.36 813.314 165.531 810.704 167.955L812.064 169.421ZM820.856 166.36H849.272V164.36H820.856V166.36Z" fill="white" mask="url(#path-2-outside-1_6_71)"/>
<path d="M118.585 246.323H110.452C112.37 242.713 116.561 183.133 116.561 66.6833H118.585V246.323Z" fill="white"/>
<path fill-rule="evenodd" clip-rule="evenodd" d="M94.7268 64.2593C102.13 64.208 109.959 64.1538 118.169 64.1538V67.4889C110.041 67.4889 102.261 67.5427 94.8822 67.5938C75.8372 67.7257 59.4658 67.839 46.6804 66.9598C37.8135 66.3501 30.5129 65.256 25.168 63.2926C19.8409 61.3358 16.0609 58.3579 14.9995 53.729L18.1276 52.9573C18.813 55.9466 21.3106 58.3377 26.2414 60.1489C31.1543 61.9536 38.0919 63.0269 46.8931 63.6321C59.5534 64.5027 75.7421 64.3907 94.7268 64.2593Z" fill="white"/>
<path fill-rule="evenodd" clip-rule="evenodd" d="M103.552 64.2596C108.156 64.2083 113.035 64.1538 118.169 64.1538V67.4888C113.168 67.4888 108.366 67.5425 103.802 67.5934C91.9597 67.7256 81.7148 67.84 73.723 66.954C68.1761 66.339 63.4937 65.2258 60.0205 63.1688C56.4548 61.0571 54.1783 57.9524 53.5574 53.5865L56.7383 53.0998C57.2009 56.3522 58.818 58.6163 61.6148 60.2727C64.5041 61.9838 68.6529 63.0379 74.0647 63.6379C81.8559 64.5017 91.8068 64.3906 103.552 64.2596Z" fill="white"/>
<path fill-rule="evenodd" clip-rule="evenodd" d="M111.76 64.243C113.79 64.1973 115.933 64.1538 118.169 64.1538V67.4888C115.971 67.4888 113.858 67.5316 111.829 67.5772C111.587 67.5827 111.346 67.5881 111.106 67.5936C109.342 67.6338 107.64 67.6726 106.023 67.6817C102.365 67.7023 99.0092 67.5745 96.1403 66.9251C93.2474 66.2703 90.7189 65.0563 88.8582 62.8064C87.003 60.5633 85.9785 57.492 85.6979 53.4633L88.9049 53.223C89.1549 56.8126 90.0375 59.1102 91.2987 60.6351C92.5543 62.1533 94.3513 63.1066 96.8259 63.6668C99.3245 64.2323 102.378 64.3672 106.005 64.3467C107.594 64.3378 109.268 64.2997 111.035 64.2594C111.275 64.2539 111.516 64.2484 111.76 64.243Z" fill="white"/>
<path d="M22.6576 45.7353C22.6576 52.2165 17.5855 57.4706 11.3288 57.4706C5.07208 57.4706 0 52.2165 0 45.7353C0 39.2541 5.07208 34 11.3288 34C17.5855 34 22.6576 39.2541 22.6576 45.7353Z" fill="white"/>
<path fill-rule="evenodd" clip-rule="evenodd" d="M11.3288 56.8036C17.2312 56.8036 22.0145 51.8473 22.0145 45.7353C22.0145 39.6233 17.2312 34.667 11.3288 34.667C5.42645 34.667 0.643071 39.6233 0.643071 45.7353C0.643071 51.8473 5.42645 56.8036 11.3288 56.8036ZM11.3288 57.4706C17.5855 57.4706 22.6576 52.2165 22.6576 45.7353C22.6576 39.2541 17.5855 34 11.3288 34C5.07208 34 0 39.2541 0 45.7353C0 52.2165 5.07208 57.4706 11.3288 57.4706Z" fill="white"/>
<path d="M61.8727 45.7353C61.8727 52.2165 56.8007 57.4706 50.5439 57.4706C44.2872 57.4706 39.2151 52.2165 39.2151 45.7353C39.2151 39.2541 44.2872 34 50.5439 34C56.8007 34 61.8727 39.2541 61.8727 45.7353Z" fill="white"/>
<path fill-rule="evenodd" clip-rule="evenodd" d="M50.5439 56.8036C56.4463 56.8036 61.2297 51.8473 61.2297 45.7353C61.2297 39.6233 56.4463 34.667 50.5439 34.667C44.6416 34.667 39.8582 39.6233 39.8582 45.7353C39.8582 51.8473 44.6416 56.8036 50.5439 56.8036ZM50.5439 57.4706C56.8007 57.4706 61.8727 52.2165 61.8727 45.7353C61.8727 39.2541 56.8007 34 50.5439 34C44.2872 34 39.2151 39.2541 39.2151 45.7353C39.2151 52.2165 44.2872 57.4706 50.5439 57.4706Z" fill="white"/>
<path d="M98.4735 45.7353C98.4735 52.2165 93.4015 57.4706 87.1447 57.4706C80.888 57.4706 75.8159 52.2165 75.8159 45.7353C75.8159 39.2541 80.888 34 87.1447 34C93.4015 34 98.4735 39.2541 98.4735 45.7353Z" fill="white"/>
<path fill-rule="evenodd" clip-rule="evenodd" d="M87.1447 56.8036C93.0471 56.8036 97.8305 51.8473 97.8305 45.7353C97.8305 39.6233 93.0471 34.667 87.1447 34.667C81.2424 34.667 76.459 39.6233 76.459 45.7353C76.459 51.8473 81.2424 56.8036 87.1447 56.8036ZM87.1447 57.4706C93.4015 57.4706 98.4735 52.2165 98.4735 45.7353C98.4735 39.2541 93.4015 34 87.1447 34C80.888 34 75.8159 39.2541 75.8159 45.7353C75.8159 52.2165 80.888 57.4706 87.1447 57.4706Z" fill="white"/>
<path d="M118.169 246.323H126.302C124.384 242.713 120.193 183.133 120.193 66.6833H118.169V246.323Z" fill="white"/>
<path fill-rule="evenodd" clip-rule="evenodd" d="M141.463 64.2592C134.107 64.208 126.328 64.1538 118.169 64.1538V67.4888C126.245 67.4888 133.975 67.5427 141.307 67.5937C160.232 67.7256 176.501 67.839 189.206 66.9597C198.017 66.3499 205.274 65.2557 210.587 63.2915C215.886 61.3328 219.642 58.3527 220.696 53.7266L217.566 52.9596C216.885 55.9517 214.403 58.3405 209.508 60.15C204.629 61.9538 197.737 63.0269 188.992 63.6321C176.413 64.5026 160.328 64.3906 141.463 64.2592Z" fill="white"/>
<path fill-rule="evenodd" clip-rule="evenodd" d="M132.786 64.2596C128.182 64.2083 123.302 64.1538 118.169 64.1538V67.4888C123.17 67.4888 127.972 67.5425 132.536 67.5934C144.378 67.7256 154.623 67.84 162.615 66.954C168.162 66.339 172.844 65.2258 176.317 63.1688C179.883 61.0571 182.159 57.9524 182.78 53.5865L179.599 53.0998C179.137 56.3522 177.52 58.6163 174.723 60.2727C171.834 61.9838 167.685 63.0379 162.273 63.6379C154.482 64.5017 144.531 64.3906 132.786 64.2596Z" fill="white"/>
<path fill-rule="evenodd" clip-rule="evenodd" d="M124.578 64.243C122.547 64.1973 120.404 64.1538 118.169 64.1538V67.4888C120.367 67.4888 122.48 67.5316 124.508 67.5772C124.75 67.5827 124.991 67.5881 125.231 67.5936C126.995 67.6338 128.698 67.6726 130.315 67.6817C133.972 67.7023 137.328 67.5745 140.197 66.9251C143.09 66.2703 145.619 65.0563 147.479 62.8064C149.335 60.5633 150.359 57.492 150.64 53.4633L147.433 53.223C147.183 56.8126 146.3 59.1102 145.039 60.6351C143.783 62.1533 141.986 63.1066 139.512 63.6668C137.013 64.2323 133.96 64.3672 130.333 64.3467C128.744 64.3378 127.07 64.2997 125.302 64.2594C125.063 64.2539 124.821 64.2484 124.578 64.243Z" fill="white"/>
<path d="M213.214 45.7353C213.214 52.2165 218.286 57.4706 224.543 57.4706C230.8 57.4706 235.872 52.2165 235.872 45.7353C235.872 39.2541 230.8 34 224.543 34C218.286 34 213.214 39.2541 213.214 45.7353Z" fill="white"/>
<path fill-rule="evenodd" clip-rule="evenodd" d="M224.543 56.8036C218.64 56.8036 213.857 51.8473 213.857 45.7353C213.857 39.6233 218.64 34.667 224.543 34.667C230.445 34.667 235.229 39.6233 235.229 45.7353C235.229 51.8473 230.445 56.8036 224.543 56.8036ZM224.543 57.4706C218.286 57.4706 213.214 52.2165 213.214 45.7353C213.214 39.2541 218.286 34 224.543 34C230.8 34 235.872 39.2541 235.872 45.7353C235.872 52.2165 230.8 57.4706 224.543 57.4706Z" fill="white"/>
<path d="M173.999 45.7353C173.999 52.2165 179.071 57.4706 185.328 57.4706C191.584 57.4706 196.656 52.2165 196.656 45.7353C196.656 39.2541 191.584 34 185.328 34C179.071 34 173.999 39.2541 173.999 45.7353Z" fill="white"/>
<path fill-rule="evenodd" clip-rule="evenodd" d="M185.328 56.8036C179.425 56.8036 174.642 51.8473 174.642 45.7353C174.642 39.6233 179.425 34.667 185.328 34.667C191.23 34.667 196.013 39.6233 196.013 45.7353C196.013 51.8473 191.23 56.8036 185.328 56.8036ZM185.328 57.4706C179.071 57.4706 173.999 52.2165 173.999 45.7353C173.999 39.2541 179.071 34 185.328 34C191.584 34 196.656 39.2541 196.656 45.7353C196.656 52.2165 191.584 57.4706 185.328 57.4706Z" fill="white"/>
<path d="M137.398 45.7353C137.398 52.2165 142.47 57.4706 148.727 57.4706C154.984 57.4706 160.056 52.2165 160.056 45.7353C160.056 39.2541 154.984 34 148.727 34C142.47 34 137.398 39.2541 137.398 45.7353Z" fill="white"/>
<path fill-rule="evenodd" clip-rule="evenodd" d="M148.727 56.8036C142.825 56.8036 138.041 51.8473 138.041 45.7353C138.041 39.6233 142.825 34.667 148.727 34.667C154.629 34.667 159.413 39.6233 159.413 45.7353C159.413 51.8473 154.629 56.8036 148.727 56.8036ZM148.727 57.4706C142.47 57.4706 137.398 52.2165 137.398 45.7353C137.398 39.2541 142.47 34 148.727 34C154.984 34 160.056 39.2541 160.056 45.7353C160.056 52.2165 154.984 57.4706 148.727 57.4706Z" fill="white"/>
</svg>
